<svg id="CTA" xmlns="http://www.w3.org/2000/svg" xmlns:xlink="http://www.w3.org/1999/xlink" width="1440" height="502" viewBox="0 0 1440 502">
  <defs>
    <clipPath id="clip-path">
      <rect id="Mask" width="1440" height="502" fill="#4c50b1"/>
    </clipPath>
    <linearGradient id="linear-gradient" x1="0.311" y1="0.851" x2="0.579" y2="-0.358" gradientUnits="objectBoundingBox">
      <stop offset="0" stop-color="#4c50b1" stop-opacity="0"/>
      <stop offset="1" stop-color="#f0f7ff"/>
    </linearGradient>
    <linearGradient id="linear-gradient-4" x1="0.915" y1="0.5" x2="0.398" y2="-0.284" xlink:href="#linear-gradient"/>
  </defs>
  <rect id="Mask-2" data-name="Mask" width="1440" height="502" fill="#4c50b1"/>
  <g id="CTA-2" data-name="CTA" clip-path="url(#clip-path)">
    <path id="Rectangle" d="M66.26,82.077A120,120,0,0,1,180.111,0H468L401.74,198.923A120,120,0,0,1,287.889,281H0Z" transform="translate(1082 190)" opacity="0.2" fill="url(#linear-gradient)"/>
    <path id="Rectangle_Copy_10" data-name="Rectangle Copy 10" d="M117.864,82.084A120,120,0,0,1,231.716,0H726L608.136,353.916A120,120,0,0,1,494.284,436H0Z" transform="translate(-233 -33)" opacity="0.2" fill="url(#linear-gradient)"/>
    <path id="Rectangle_Copy_8" data-name="Rectangle Copy 8" d="M105.591,93.762A120,120,0,0,1,222.687,0H633L527.409,471.238A120,120,0,0,1,410.313,565H0Z" transform="translate(789 -146)" opacity="0.2" fill="url(#linear-gradient)"/>
    <path id="Rectangle_Copy_9" data-name="Rectangle Copy 9" d="M105.591,93.762A120,120,0,0,1,222.687,0H633L527.409,471.238A120,120,0,0,1,410.313,565H0Z" transform="translate(-29 331)" opacity="0.1" fill="url(#linear-gradient-4)"/>
    <path id="Rectangle_Copy_11" data-name="Rectangle Copy 11" d="M37.048,91.192A120,120,0,0,1,153.539,0H298L260.952,149.808A120,120,0,0,1,144.461,241H0Z" transform="translate(1006 95)" fill="none" stroke="#fff" stroke-miterlimit="10" stroke-width="1" opacity="0.2"/>
    <path id="Rectangle_Copy_13" data-name="Rectangle Copy 13" d="M37.048,91.192A120,120,0,0,1,153.539,0H298L260.952,149.808A120,120,0,0,1,144.461,241H0Z" transform="translate(-116 83)" fill="none" stroke="#fff" stroke-miterlimit="10" stroke-width="1" opacity="0.2"/>
  </g>
</svg>
