<?xml version="1.0" encoding="utf-8"?>
<!-- Generator: Adobe Illustrator 22.0.1, SVG Export Plug-In . SVG Version: 6.00 Build 0)  -->
<svg version="1.1" id="Layer_1" xmlns="http://www.w3.org/2000/svg" xmlns:xlink="http://www.w3.org/1999/xlink" x="0px" y="0px"
	 viewBox="0 0 562.1 554.5" style="enable-background:new 0 0 562.1 554.5;" xml:space="preserve">
<style type="text/css">
	.st0{fill:#EDEDF4;}
</style>
<g>
	<path class="st0" d="M159.4,34.2L37.6,156c-3.8,7.5-7.2,15.2-10.2,23L182.4,23.9C174.6,27,167,30.4,159.4,34.2z"/>
	<path class="st0" d="M219.1,12.5L15.9,215.7c-1.3,5.3-2.4,10.7-3.3,16L235.1,9.2C229.7,10.1,224.4,11.2,219.1,12.5z"/>
	<path class="st0" d="M263.8,5.7L9.1,260.4c-0.3,4.4-0.5,8.9-0.6,13.3L277.1,5.1C272.6,5.2,268.2,5.4,263.8,5.7z"/>
	<path class="st0" d="M301.7,5.7L9.1,298.2c0.3,3.9,0.6,7.8,1.1,11.6L313.3,6.8C309.4,6.4,305.5,6,301.7,5.7z"/>
	<path class="st0" d="M335.2,10.1L13.5,331.8c0.7,3.5,1.4,7,2.3,10.5L345.6,12.4C342.2,11.6,338.7,10.8,335.2,10.1z"/>
	<path class="st0" d="M365.4,17.8L21.2,362c1,3.2,2.1,6.4,3.2,9.5L374.9,21C371.7,19.9,368.6,18.8,365.4,17.8z"/>
	<path class="st0" d="M392.9,28.2L31.6,389.5c1.3,2.9,2.6,5.8,4,8.7l366-366C398.8,30.8,395.9,29.5,392.9,28.2z"/>
	<path class="st0" d="M418.2,40.9L44.3,414.7c1.5,2.7,3.1,5.3,4.7,8L426.1,45.6C423.5,44,420.8,42.4,418.2,40.9z"/>
	<path class="st0" d="M441.3,55.7L59.1,437.9c1.8,2.5,3.6,4.9,5.4,7.3L448.6,61.1C446.2,59.3,443.8,57.5,441.3,55.7z"/>
	<path class="st0" d="M462.5,72.4L75.8,459.1c2,2.3,4,4.5,6,6.7L469.2,78.5C467,76.4,464.7,74.4,462.5,72.4z"/>
	<path class="st0" d="M481.8,91L94.4,478.4c2.2,2.1,4.4,4.1,6.7,6.1L487.9,97.7C485.9,95.4,483.9,93.2,481.8,91z"/>
	<path class="st0" d="M499.3,111.4L114.9,495.9c2.4,1.9,4.8,3.7,7.3,5.4l382.6-382.6C503,116.3,501.2,113.8,499.3,111.4z"/>
	<path class="st0" d="M514.9,133.8L137.2,511.5c2.6,1.6,5.3,3.2,7.9,4.8l374.6-374.6C518.1,139.1,516.6,136.4,514.9,133.8z"/>
	<path class="st0" d="M528.5,158.1L161.5,525.1c2.9,1.4,5.8,2.8,8.7,4.1l362.3-362.3C531.2,163.9,529.9,161,528.5,158.1z"/>
	<path class="st0" d="M539.8,184.7L188.1,536.4c3.1,1.1,6.3,2.2,9.4,3.3l345.6-345.6C542.1,191,541,187.8,539.8,184.7z"/>
	<path class="st0" d="M548.7,213.8L217.2,545.3c3.5,0.8,6.9,1.6,10.4,2.3L551,224.2C550.3,220.7,549.5,217.2,548.7,213.8z"/>
	<path class="st0" d="M554.5,245.8L249.3,551.1c3.8,0.5,7.7,0.8,11.6,1.1l294.9-294.9C555.4,253.6,555,249.7,554.5,245.8z"/>
	<path class="st0" d="M285.2,553.1c4.4,0,8.8-0.2,13.2-0.4L556.1,295c0.3-4.4,0.4-8.8,0.4-13.2L285.2,553.1z"/>
	<path class="st0" d="M342.4,546.5L549.9,339c1.2-5.2,2.2-10.5,3-15.7L326.7,549.6C331.9,548.7,337.2,547.7,342.4,546.5z"/>
	<path class="st0" d="M400.3,526.6L530,396.9c3.4-7.2,6.6-14.6,9.3-22.1L378.2,535.9C385.7,533.2,393,530.1,400.3,526.6z"/>
</g>
</svg>
