
<svg width="1441px" height="1152px" viewBox="0 0 1441 1152" version="1.1" xmlns="http://www.w3.org/2000/svg" xmlns:xlink="http://www.w3.org/1999/xlink">
    <!-- Generator: Sketch 49.1 (51147) - http://www.bohemiancoding.com/sketch -->
    <desc>Created with Sketch.</desc>
    <defs>
        <radialGradient cx="47.9906622%" cy="51.0351486%" fx="47.9906622%" fy="51.0351486%" r="35.3978449%" id="radialGradient-1">
            <stop stop-color="#2EA5FF" offset="0%"></stop>
            <stop stop-color="#2EA5FF" stop-opacity="0.66" offset="33%"></stop>
            <stop stop-color="#2EA5FF" stop-opacity="0.19" offset="79%"></stop>
            <stop stop-color="#2EA5FF" stop-opacity="0" offset="100%"></stop>
        </radialGradient>
        <radialGradient cx="47.9913908%" cy="50.9865225%" fx="47.9913908%" fy="50.9865225%" r="62.5872212%" gradientTransform="translate(0.479914,0.509865),scale(0.728499,1.000000),translate(-0.479914,-0.509865)" id="radialGradient-2">
            <stop stop-color="#2EA5FF" offset="0%"></stop>
            <stop stop-color="#2EA5FF" stop-opacity="0" offset="100%"></stop>
        </radialGradient>
        <linearGradient x1="59.6281637%" y1="36.6981067%" x2="39.9106721%" y2="63.2904743%" id="linearGradient-3">
            <stop stop-color="#BBDFFF" offset="0%"></stop>
            <stop stop-color="#E0FFFF" stop-opacity="0" offset="100%"></stop>
        </linearGradient>
        <linearGradient x1="37.1067172%" y1="23.7513666%" x2="64.8385771%" y2="80.2271939%" id="linearGradient-4">
            <stop stop-color="#99BDFF" offset="16%"></stop>
            <stop stop-color="#9ABEFF" stop-opacity="0.98" offset="25%"></stop>
            <stop stop-color="#9CC0FF" stop-opacity="0.93" offset="36%"></stop>
            <stop stop-color="#A1C5FF" stop-opacity="0.84" offset="47%"></stop>
            <stop stop-color="#A7CBFF" stop-opacity="0.72" offset="58%"></stop>
            <stop stop-color="#AED2FF" stop-opacity="0.56" offset="70%"></stop>
            <stop stop-color="#B7DBFF" stop-opacity="0.37" offset="81%"></stop>
            <stop stop-color="#C2E6FF" stop-opacity="0.14" offset="93%"></stop>
            <stop stop-color="#C9EDFF" stop-opacity="0" offset="100%"></stop>
        </linearGradient>
        <radialGradient cx="49.9998934%" cy="49.999023%" fx="49.9998934%" fy="49.999023%" r="118.020175%" gradientTransform="translate(0.499999,0.499990),scale(0.684562,1.000000),translate(-0.499999,-0.499990)" id="radialGradient-5">
            <stop stop-color="#05B9FF" offset="0%"></stop>
            <stop stop-color="#4D6EFF" offset="100%"></stop>
        </radialGradient>
        <radialGradient cx="65907%" cy="27767%" fx="65907%" fy="27767%" r="19690.9315%" gradientTransform="translate(659.070000,277.670000),scale(0.684224,1.000000),translate(-659.070000,-277.670000)" id="radialGradient-6">
            <stop stop-color="#05B9FF" offset="0%"></stop>
            <stop stop-color="#4D6EFF" offset="100%"></stop>
        </radialGradient>
        <linearGradient x1="50%" y1="17.8179221%" x2="50%" y2="81.2981756%" id="linearGradient-7">
            <stop stop-color="#BBDFFF" offset="0%"></stop>
            <stop stop-color="#BBDFFF" stop-opacity="0.99" offset="37%"></stop>
            <stop stop-color="#BCE0FF" stop-opacity="0.97" offset="51%"></stop>
            <stop stop-color="#BEE2FF" stop-opacity="0.92" offset="60%"></stop>
            <stop stop-color="#C0E4FF" stop-opacity="0.85" offset="68%"></stop>
            <stop stop-color="#C4E6FF" stop-opacity="0.77" offset="75%"></stop>
            <stop stop-color="#C8EAFF" stop-opacity="0.66" offset="80%"></stop>
            <stop stop-color="#CCEEFF" stop-opacity="0.53" offset="86%"></stop>
            <stop stop-color="#D2F3FF" stop-opacity="0.39" offset="91%"></stop>
            <stop stop-color="#D8F8FF" stop-opacity="0.22" offset="95%"></stop>
            <stop stop-color="#DFFEFF" stop-opacity="0.04" offset="99%"></stop>
            <stop stop-color="#E0FFFF" stop-opacity="0" offset="100%"></stop>
        </linearGradient>
        <linearGradient x1="37.8810143%" y1="28.8884112%" x2="60.6081157%" y2="68.4747301%" id="linearGradient-8">
            <stop stop-color="#99BDFF" offset="15%"></stop>
            <stop stop-color="#9ABEFF" stop-opacity="0.99" offset="32%"></stop>
            <stop stop-color="#9BBFFF" stop-opacity="0.95" offset="43%"></stop>
            <stop stop-color="#9EC2FF" stop-opacity="0.89" offset="53%"></stop>
            <stop stop-color="#A2C6FF" stop-opacity="0.81" offset="62%"></stop>
            <stop stop-color="#A8CCFF" stop-opacity="0.7" offset="70%"></stop>
            <stop stop-color="#AED2FF" stop-opacity="0.56" offset="78%"></stop>
            <stop stop-color="#B6DAFF" stop-opacity="0.4" offset="86%"></stop>
            <stop stop-color="#BFE3FF" stop-opacity="0.22" offset="93%"></stop>
            <stop stop-color="#C8ECFF" stop-opacity="0.01" offset="100%"></stop>
            <stop stop-color="#C9EDFF" stop-opacity="0" offset="100%"></stop>
        </linearGradient>
        <linearGradient x1="50.0018555%" y1="18.54089%" x2="50.0018555%" y2="89.8636213%" id="linearGradient-9">
            <stop stop-color="#DADADA" offset="0%"></stop>
            <stop stop-color="#FFFFFF" offset="100%"></stop>
        </linearGradient>
        <radialGradient cx="101433.038%" cy="51165.3795%" fx="101433.038%" fy="51165.3795%" r="39986.3731%" gradientTransform="translate(1014.330380,511.653795),scale(0.663626,1.000000),translate(-1014.330380,-511.653795)" id="radialGradient-10">
            <stop stop-color="#05B9FF" offset="0%"></stop>
            <stop stop-color="#4D6EFF" offset="100%"></stop>
        </radialGradient>
        <radialGradient cx="116381%" cy="46746%" fx="116381%" fy="46746%" r="16472.0504%" gradientTransform="translate(1163.810000,467.460000),scale(0.684068,1.000000),translate(-1163.810000,-467.460000)" id="radialGradient-11">
            <stop stop-color="#05B9FF" offset="0%"></stop>
            <stop stop-color="#4D6EFF" offset="100%"></stop>
        </radialGradient>
        <linearGradient x1="66118%" y1="80375%" x2="66118%" y2="101395%" id="linearGradient-12">
            <stop stop-color="#BBDFFF" offset="0%"></stop>
            <stop stop-color="#E0FFFF" stop-opacity="0" offset="100%"></stop>
        </linearGradient>
        <linearGradient x1="31.4354936%" y1="22.3466962%" x2="72.3803755%" y2="83.329534%" id="linearGradient-13">
            <stop stop-color="#A4C8FF" offset="0%"></stop>
            <stop stop-color="#A5C9FF" stop-opacity="0.98" offset="13%"></stop>
            <stop stop-color="#A6CAFF" stop-opacity="0.94" offset="26%"></stop>
            <stop stop-color="#A9CDFF" stop-opacity="0.86" offset="38%"></stop>
            <stop stop-color="#ADD1FF" stop-opacity="0.75" offset="50%"></stop>
            <stop stop-color="#B2D6FF" stop-opacity="0.61" offset="63%"></stop>
            <stop stop-color="#B9DDFF" stop-opacity="0.44" offset="75%"></stop>
            <stop stop-color="#C0E4FF" stop-opacity="0.24" offset="87%"></stop>
            <stop stop-color="#C8ECFF" stop-opacity="0.01" offset="99%"></stop>
            <stop stop-color="#C9EDFF" stop-opacity="0" offset="100%"></stop>
        </linearGradient>
        <linearGradient x1="-2.23326873e-05%" y1="49.9967894%" x2="100.008004%" y2="49.9967894%" id="linearGradient-14">
            <stop stop-color="#05B9FF" offset="0%"></stop>
            <stop stop-color="#07B7FF" offset="36%"></stop>
            <stop stop-color="#0FAFFF" offset="55%"></stop>
            <stop stop-color="#1CA1FF" offset="71%"></stop>
            <stop stop-color="#2F8DFF" offset="85%"></stop>
            <stop stop-color="#4774FF" offset="97%"></stop>
            <stop stop-color="#4D6EFF" offset="100%"></stop>
        </linearGradient>
        <radialGradient cx="77.2601476%" cy="-1.01709776%" fx="77.2601476%" fy="-1.01709776%" r="87.6614391%" gradientTransform="translate(0.772601,-0.010171),scale(1.000000,0.380184),translate(-0.772601,0.010171)" id="radialGradient-15">
            <stop stop-color="#2EA5FF" offset="0%"></stop>
            <stop stop-color="#255E9E" offset="100%"></stop>
        </radialGradient>
        <radialGradient cx="64467%" cy="61167%" fx="64467%" fy="61167%" r="3801%" gradientTransform="translate(644.670000,611.670000),scale(1.000000,0.368357),translate(-644.670000,-611.670000)" id="radialGradient-16">
            <stop stop-color="#2EA5FF" offset="0%"></stop>
            <stop stop-color="#255E9E" offset="100%"></stop>
        </radialGradient>
        <radialGradient cx="95.5491853%" cy="61.3435168%" fx="95.5491853%" fy="61.3435168%" r="105.346294%" gradientTransform="translate(0.955492,0.613435),scale(0.869191,1.000000),translate(-0.955492,-0.613435)" id="radialGradient-17">
            <stop stop-color="#A4569B" offset="0%"></stop>
            <stop stop-color="#A6599D" offset="35%"></stop>
            <stop stop-color="#AD62A2" offset="59%"></stop>
            <stop stop-color="#B971AB" offset="80%"></stop>
            <stop stop-color="#CA87B8" offset="98%"></stop>
            <stop stop-color="#CC89B9" offset="100%"></stop>
        </radialGradient>
        <linearGradient x1="44.6836894%" y1="6.24525683%" x2="50.7245116%" y2="74.7117761%" id="linearGradient-18">
            <stop stop-color="#C4A2E5" offset="0%"></stop>
            <stop stop-color="#A58FEE" offset="34%"></stop>
            <stop stop-color="#6E6EFF" offset="100%"></stop>
        </linearGradient>
        <radialGradient cx="49.9997667%" cy="50.0016516%" fx="49.9997667%" fy="50.0016516%" r="128.450897%" gradientTransform="translate(0.499998,0.500017),scale(1.000000,0.286309),translate(-0.499998,-0.500017)" id="radialGradient-19">
            <stop stop-color="#2493A0" offset="0%"></stop>
            <stop stop-color="#2596A0" offset="36%"></stop>
            <stop stop-color="#289FA0" offset="62%"></stop>
            <stop stop-color="#2DAEA0" offset="83%"></stop>
            <stop stop-color="#33C0A0" offset="100%"></stop>
        </radialGradient>
        <radialGradient cx="97800%" cy="82967%" fx="97800%" fy="82967%" r="14414%" gradientTransform="translate(978.000000,829.670000),scale(1.000000,0.162443),translate(-978.000000,-829.670000)" id="radialGradient-20">
            <stop stop-color="#2493A0" offset="0%"></stop>
            <stop stop-color="#2596A0" offset="36%"></stop>
            <stop stop-color="#289FA0" offset="62%"></stop>
            <stop stop-color="#2DAEA0" offset="83%"></stop>
            <stop stop-color="#33C0A0" offset="100%"></stop>
        </radialGradient>
        <radialGradient cx="98400%" cy="87767%" fx="98400%" fy="87767%" r="10680%" gradientTransform="translate(984.000000,877.670000),scale(1.000000,0.451864),translate(-984.000000,-877.670000)" id="radialGradient-21">
            <stop stop-color="#2493A0" offset="0%"></stop>
            <stop stop-color="#2596A0" offset="36%"></stop>
            <stop stop-color="#289FA0" offset="62%"></stop>
            <stop stop-color="#2DAEA0" offset="83%"></stop>
            <stop stop-color="#33C0A0" offset="100%"></stop>
        </radialGradient>
        <radialGradient cx="94533%" cy="88433%" fx="94533%" fy="88433%" r="8864%" gradientTransform="translate(945.330000,884.330000),scale(1.000000,0.737520),translate(-945.330000,-884.330000)" id="radialGradient-22">
            <stop stop-color="#2493A0" offset="0%"></stop>
            <stop stop-color="#2596A0" offset="36%"></stop>
            <stop stop-color="#289FA0" offset="62%"></stop>
            <stop stop-color="#2DAEA0" offset="83%"></stop>
            <stop stop-color="#33C0A0" offset="100%"></stop>
        </radialGradient>
        <radialGradient cx="39001%" cy="52710%" fx="39001%" fy="52710%" r="6983.40583%" gradientTransform="translate(390.010000,527.100000),scale(0.869060,1.000000),translate(-390.010000,-527.100000)" id="radialGradient-23">
            <stop stop-color="#A4569B" offset="0%"></stop>
            <stop stop-color="#A6599D" offset="35%"></stop>
            <stop stop-color="#AD62A2" offset="59%"></stop>
            <stop stop-color="#B971AB" offset="80%"></stop>
            <stop stop-color="#CA87B8" offset="98%"></stop>
            <stop stop-color="#CC89B9" offset="100%"></stop>
        </radialGradient>
        <radialGradient cx="39424%" cy="38168%" fx="39424%" fy="38168%" r="8556%" gradientTransform="translate(394.240000,381.680000),scale(1.000000,0.286278),translate(-394.240000,-381.680000)" id="radialGradient-24">
            <stop stop-color="#2493A0" offset="0%"></stop>
            <stop stop-color="#2596A0" offset="36%"></stop>
            <stop stop-color="#289FA0" offset="62%"></stop>
            <stop stop-color="#2DAEA0" offset="83%"></stop>
            <stop stop-color="#33C0A0" offset="100%"></stop>
        </radialGradient>
        <radialGradient cx="36067%" cy="38976%" fx="36067%" fy="38976%" r="14414%" gradientTransform="translate(360.670000,389.760000),scale(1.000000,0.162443),translate(-360.670000,-389.760000)" id="radialGradient-25">
            <stop stop-color="#2493A0" offset="0%"></stop>
            <stop stop-color="#2596A0" offset="36%"></stop>
            <stop stop-color="#289FA0" offset="62%"></stop>
            <stop stop-color="#2DAEA0" offset="83%"></stop>
            <stop stop-color="#33C0A0" offset="100%"></stop>
        </radialGradient>
        <radialGradient cx="36667%" cy="43776%" fx="36667%" fy="43776%" r="10680%" gradientTransform="translate(366.670000,437.760000),scale(1.000000,0.451783),translate(-366.670000,-437.760000)" id="radialGradient-26">
            <stop stop-color="#2493A0" offset="0%"></stop>
            <stop stop-color="#2596A0" offset="36%"></stop>
            <stop stop-color="#289FA0" offset="62%"></stop>
            <stop stop-color="#2DAEA0" offset="83%"></stop>
            <stop stop-color="#33C0A0" offset="100%"></stop>
        </radialGradient>
        <radialGradient cx="32801%" cy="44443%" fx="32801%" fy="44443%" r="8864%" gradientTransform="translate(328.010000,444.430000),scale(1.000000,0.737051),translate(-328.010000,-444.430000)" id="radialGradient-27">
            <stop stop-color="#2493A0" offset="0%"></stop>
            <stop stop-color="#2596A0" offset="36%"></stop>
            <stop stop-color="#289FA0" offset="62%"></stop>
            <stop stop-color="#2DAEA0" offset="83%"></stop>
            <stop stop-color="#33C0A0" offset="100%"></stop>
        </radialGradient>
        <linearGradient x1="32.1966076%" y1="-2.70747137%" x2="64.0626356%" y2="91.7801451%" id="linearGradient-28">
            <stop stop-color="#F7C58A" offset="0%"></stop>
            <stop stop-color="#C8ADAA" offset="21%"></stop>
            <stop stop-color="#9392CF" offset="47%"></stop>
            <stop stop-color="#6D7EE9" offset="70%"></stop>
            <stop stop-color="#5672F9" offset="89%"></stop>
            <stop stop-color="#4D6EFF" offset="100%"></stop>
        </linearGradient>
        <linearGradient x1="0%" y1="50.0948767%" x2="100%" y2="50.0948767%" id="linearGradient-29">
            <stop stop-color="#FFFF88" offset="2%"></stop>
            <stop stop-color="#FFFF57" offset="32%"></stop>
            <stop stop-color="#FFF477" offset="96%"></stop>
        </linearGradient>
        <linearGradient x1="0%" y1="49.9021526%" x2="100%" y2="49.9021526%" id="linearGradient-30">
            <stop stop-color="#FFFF57" offset="3%"></stop>
            <stop stop-color="#FFFF6F" offset="53%"></stop>
            <stop stop-color="#FFDD75" offset="94%"></stop>
        </linearGradient>
        <linearGradient x1="0.0918273646%" y1="50.1522843%" x2="100.214264%" y2="50.1522843%" id="linearGradient-31">
            <stop stop-color="#38C5BD" offset="31%"></stop>
            <stop stop-color="#389888" offset="95%"></stop>
        </linearGradient>
        <linearGradient x1="25.7841328%" y1="-8.88206927%" x2="42.9889299%" y2="51.2582201%" id="linearGradient-32">
            <stop stop-color="#3A89A7" offset="0%"></stop>
            <stop stop-color="#3A86A4" offset="4%"></stop>
            <stop stop-color="#3A506D" offset="100%"></stop>
        </linearGradient>
        <linearGradient x1="116724%" y1="4783.46173%" x2="117469%" y2="5716.33574%" id="linearGradient-33">
            <stop stop-color="#3A89A7" offset="0%"></stop>
            <stop stop-color="#3A86A4" offset="4%"></stop>
            <stop stop-color="#3A506D" offset="100%"></stop>
        </linearGradient>
        <radialGradient cx="44.5955619%" cy="-0.946796546%" fx="44.5955619%" fy="-0.946796546%" r="51.1274159%" gradientTransform="translate(0.445956,-0.009468),scale(1.000000,0.708390),translate(-0.445956,0.009468)" id="radialGradient-34">
            <stop stop-color="#2EA5FF" offset="0%"></stop>
            <stop stop-color="#2D9CF3" offset="6%"></stop>
            <stop stop-color="#2982CF" offset="27%"></stop>
            <stop stop-color="#2878C1" offset="37%"></stop>
            <stop stop-color="#2877BF" offset="39%"></stop>
            <stop stop-color="#2669AD" offset="58%"></stop>
            <stop stop-color="#2561A2" offset="78%"></stop>
            <stop stop-color="#255E9E" offset="100%"></stop>
        </radialGradient>
        <radialGradient cx="19.4151863%" cy="8.63536251%" fx="19.4151863%" fy="8.63536251%" r="81.2450873%" gradientTransform="translate(0.194152,0.086354),scale(1.000000,0.792217),translate(-0.194152,-0.086354)" id="radialGradient-35">
            <stop stop-color="#3A89A7" offset="0%"></stop>
            <stop stop-color="#3A7D9A" offset="14%"></stop>
            <stop stop-color="#3A6481" offset="46%"></stop>
            <stop stop-color="#3A5572" offset="76%"></stop>
            <stop stop-color="#3A506D" offset="100%"></stop>
        </radialGradient>
        <linearGradient x1="77575%" y1="19143.239%" x2="74375%" y2="23621.2065%" id="linearGradient-36">
            <stop stop-color="#C4A2E5" offset="0%"></stop>
            <stop stop-color="#A58FEE" offset="34%"></stop>
            <stop stop-color="#6E6EFF" offset="100%"></stop>
        </linearGradient>
    </defs>
    <g id="Page-1" stroke="none" stroke-width="1" fill="none" fill-rule="evenodd">
        <g id="Artboard-6" transform="translate(-38.000000, -76.000000)">
            <circle id="Oval" fill="url(#radialGradient-1)" fill-rule="nonzero" cx="823.22" cy="635.19" r="634.99"></circle>
            <path d="M1580,589.37 L1576.61,584.37 L1402,702.51 L1292.53,626.83 L1473,504.74 L1469.61,499.74 L1287.25,623.14 L1177.79,547.45 L1365.96,420.12 L1362.57,415.12 L1172.43,543.77 L1063,468.08 L1258.9,335.5 L1255.51,330.5 L1057.63,464.4 L948.17,388.71 L1151.86,250.87 L1148.47,245.87 L942.83,385 L833.36,309.33 L1044.81,166.25 L1041.43,161.25 L828,305.65 L718.56,230 L937.77,81.63 L934.38,76.63 L713.23,226.27 L568.83,126.44 L565.39,131.44 L707.85,229.94 L606.62,298.44 L462.92,199.09 L459.48,204.09 L601.24,302.09 L501.84,369.35 L351.06,265.07 L347.63,270.07 L496.47,373 L397.07,440.26 L271.38,353.36 L267.94,358.36 L391.69,443.93 L292.29,511.19 L191.69,441.63 L188.25,446.63 L286.92,514.85 L187.52,582 L112,529.8 L108.56,534.8 L182.15,585.68 L82.74,652.91 L32.31,618 L28.87,623 L77.37,656.54 L0.3,708.7 L3.69,713.7 L82.69,660.23 L192.15,735.91 L107.34,793.33 L110.73,798.33 L197.51,739.61 L307,815.29 L214.38,878 L217.77,883 L312.31,819 L421.78,894.69 L321.43,962.59 L324.81,967.59 L427.11,898.37 L536.58,974 L428.47,1047.2 L431.86,1052.2 L541.91,977.73 L651.38,1053.41 L535.51,1131.82 L538.9,1136.82 L656.72,1057.09 L766.18,1132.78 L642.55,1216.44 L645.94,1221.44 L771.52,1136.44 L903.14,1227.44 L906.58,1222.44 L776.89,1132.77 L876.29,1065.51 L982.83,1139.17 L986.27,1134.17 L881.67,1061.85 L981.07,994.59 L1062.52,1050.91 L1065.96,1045.91 L986.44,990.91 L1085.84,923.65 L1142.21,962.65 L1145.65,957.65 L1091.21,920.01 L1190.62,852.75 L1221.9,874.38 L1225.34,869.38 L1196,849.24 L1295.4,781.98 L1333.77,808.5 L1337.21,803.5 L1300.77,778.31 L1402,709.84 L1439.66,735.84 L1443.1,730.84 L1407.37,706.13 L1580,589.37 Z M1281.83,626.77 L1180.6,695.28 L1071.16,619.6 L1172.4,551.09 L1281.83,626.77 Z M736.1,682 L636.7,749.26 L527.23,673.55 L626.63,606.28 L736.1,682 Z M632,602.65 L731.4,535.38 L840.87,611.07 L741.46,678.33 L632,602.65 Z M741.43,685.65 L850.9,761.34 L751.5,828.61 L642,752.92 L741.43,685.65 Z M746.8,682.01 L846.2,614.75 L955.67,690.43 L856.27,757.7 L746.8,682.01 Z M851.57,611.11 L951,543.86 L1060.46,619.54 L961.06,686.81 L851.57,611.11 Z M846.24,607.42 L736.78,531.75 L836.18,464.48 L945.65,540.17 L846.24,607.42 Z M731.44,528.05 L622,452.37 L721.4,385.11 L830.85,460.8 L731.44,528.05 Z M726.06,531.69 L626.67,599 L517.21,523.27 L616.61,456 L726.06,531.69 Z M621.3,602.6 L521.9,669.86 L412.43,594.17 L511.83,526.91 L621.3,602.6 Z M516.52,673.5 L417.12,740.76 L307.66,665.07 L407.06,597.81 L516.52,673.5 Z M521.86,677.18 L631.33,752.87 L531.92,820.13 L422.46,744.45 L521.86,677.18 Z M636.66,756.56 L746.13,832.24 L646.73,899.5 L537.26,823.82 L636.66,756.56 Z M751.46,835.93 L860.93,911.61 L761.53,978.88 L652.06,903.19 L751.46,835.93 Z M756.84,832.29 L856.24,765 L965.7,840.71 L866.3,908 L756.84,832.29 Z M861.61,761.39 L961,694.13 L1070.47,769.81 L971.07,837.08 L861.61,761.39 Z M966.39,690.49 L1065.79,623.23 L1175.25,698.92 L1075.85,766.18 L966.39,690.49 Z M1167.06,547.4 L1065.83,615.91 L956.36,540.22 L1057.59,471.72 L1167.06,547.4 Z M1052.26,468 L951,536.53 L841.56,460.85 L942.79,392.34 L1052.26,468 Z M937.46,388.62 L836.22,457.16 L726.75,381.48 L828,313 L937.46,388.62 Z M713.19,233.62 L822.65,309.3 L721.42,377.79 L612,302.1 L713.19,233.62 Z M606.58,305.74 L716.05,381.42 L616.64,448.69 L507.18,373 L606.58,305.74 Z M501.81,376.64 L611.27,452.32 L511.87,519.59 L402.4,443.9 L501.81,376.64 Z M397,447.54 L506.5,523.22 L407.09,590.49 L297.63,514.8 L397,447.54 Z M292.23,518.44 L401.69,594.12 L302.29,661.38 L192.85,585.7 L292.23,518.44 Z M88.08,656.6 L187.48,589.34 L297,665 L197.6,732.26 L88.08,656.6 Z M202.88,736 L302.28,668.74 L411.75,744.42 L312.35,811.69 L202.88,736 Z M317.68,815.38 L417.08,748.11 L526.55,823.8 L427.15,891 L317.68,815.38 Z M432.49,894.75 L531.89,827.49 L641.35,903.17 L542,970.4 L432.49,894.75 Z M547.29,974.12 L646.69,906.86 L756.15,982.54 L656.75,1049.81 L547.29,974.12 Z M771.56,1129.18 L662.09,1053.5 L761.49,986.23 L871,1061.89 L771.56,1129.18 Z M876.33,1058.28 L766.86,982.6 L866.26,915.33 L975.73,991 L876.33,1058.28 Z M981.1,987.38 L871.64,911.67 L971,844.4 L1080.46,920.09 L981.1,987.38 Z M1085.88,916.48 L976.41,840.77 L1075.81,773.5 L1185.28,849.19 L1085.88,916.48 Z M1190.65,845.58 L1081.19,769.9 L1180.59,702.63 L1290.05,778.32 L1190.65,845.58 Z M1295.43,774.68 L1186,699 L1287.24,630.49 L1396.7,706.18 L1295.43,774.68 Z" id="Shape" fill="url(#radialGradient-2)" fill-rule="nonzero" opacity="0.48"></path>
            <path d="M695,665.44 C672,675 656.83,681 634.66,692.17 C641.23,660.51 605.98,618.17 612.55,586.47 C635.26,574.57 651.96,568.11 674.85,556.54 C666.56,591.51 703.25,630.48 695,665.44 Z" id="Shape" fill="#4F9FDD" fill-rule="nonzero"></path>
            <path d="M703.88,665.52 C680.96,675.1 664.28,683.86 642.11,695.07 C648.68,663.41 613.43,621.07 619.99,589.37 C642.71,577.47 660.89,568.19 683.77,556.62 C675.49,591.59 712.17,630.56 703.88,665.52 Z" id="Shape" fill="#CFCFDB" fill-rule="nonzero"></path>
            <polygon id="Shape" fill="url(#linearGradient-3)" fill-rule="nonzero" points="498.13 504.53 772.22 692.55 773.52 451.89 498.13 254.68"></polygon>
            <path d="M584.24,386.52 L498.13,323.35 L498.13,504.18 L505.95,509.89 L583.9,563.37 C585.69915,562.497052 586.838312,560.669727 586.83,558.67 L586.83,391 C586.813708,389.155345 585.830459,387.45459 584.24,386.52 Z" id="Shape" fill="#9DB2BF" fill-rule="nonzero" opacity="0.64" style="mix-blend-mode: multiply;"></path>
            <polygon id="Shape" fill="url(#linearGradient-4)" fill-rule="nonzero" points="773.52 451.89 772.22 692.55 991.21 554.7 991.21 317.54"></polygon>
            <path d="M505.61,273.92 L763.77,455.46 C769.665511,459.63028 777.501206,459.808274 783.58,455.91 L983.07,327.8 C988.114715,324.560478 991.177964,318.988638 991.210261,312.993422 C991.242559,306.998206 988.23952,301.393687 983.23,298.1 L724.47,124.1 C718.760265,120.33891 711.394933,120.202659 705.55,123.75 L506.66,244.32 C501.555952,247.41431 498.353908,252.87147 498.142312,258.836476 C497.930715,264.801481 500.738033,270.471811 505.61,273.92 Z" id="Shape" fill="#1C8CD1" fill-rule="nonzero"></path>
            <path d="M505.61,261.82 L763.77,443.37 C769.665511,447.54028 777.501206,447.718274 783.58,443.82 L983.07,315.71 C988.114715,312.470478 991.177964,306.898638 991.210261,300.903422 C991.242559,294.908206 988.23952,289.303687 983.23,286.01 L724.47,112 C718.760265,108.23891 711.394933,108.102659 705.55,111.65 L506.66,232.23 C501.555863,235.321861 498.353324,240.777547 498.141698,246.741358 C497.930073,252.705169 500.737854,258.374131 505.61,261.82 Z" id="Shape" stroke="#2EFFFF" stroke-width="4" fill="url(#radialGradient-5)" fill-rule="nonzero"></path>
            <path d="M844.39,350.89 L824.69,341.79 L833.69,339.22 C834.307847,339.047894 834.710232,338.453758 834.640766,337.816162 C834.5713,337.178565 834.050413,336.68502 833.41,336.65 L822.07,336 L824.59,309.82 L816.79,310.25 L814.23,335.81 L801,335.51 C800.369754,335.496157 799.819025,335.933165 799.68928,336.550067 C799.559535,337.166968 799.887572,337.788796 800.47,338.03 L809.38,341.8 C804.05,343.8 796.55,346.74 790.79,348.99 C790.056993,349.274321 789.633951,350.043907 789.786719,350.815139 C789.939487,351.586371 790.623958,352.136577 791.41,352.12 C799.41,351.95 810.41,351.68 814.71,351.41 L817.77,364.26 C817.891037,364.86823 818.424844,365.306278 819.045,365.306278 C819.665156,365.306278 820.198963,364.86823 820.32,364.26 C821.11,360.26 822.15,355.02 822.95,350.74 L843.65,353.41 C844.100155,353.542188 844.586636,353.424181 844.926192,353.100429 C845.265748,352.776678 845.406791,352.296369 845.296192,351.840429 C845.185593,351.38449 844.840155,351.022188 844.39,350.89 Z" id="Shape" fill="#025FCE" fill-rule="nonzero"></path>
            <path d="M769.77,142.45 L575.77,260.09 C570.671843,263.190635 567.479092,268.651294 567.277551,274.614894 C567.07601,280.578493 569.892809,286.242246 574.77,289.68 L654.35,348.86 C660.245511,353.03028 668.081206,353.208274 674.16,349.31 L873.57,221.2 C875.711845,219.822096 877.530127,217.996991 878.9,215.85 L769.77,142.45 Z" id="Shape" fill="#025FCE" fill-rule="nonzero"></path>
            <path d="M546.3,261.82 L625.88,321 C631.771893,325.181212 639.614323,325.359359 645.69,321.45 L845.17,193.34 C850.21598,190.1046 853.281628,184.535198 853.315949,178.541156 C853.35027,172.547113 850.348599,166.942971 845.34,163.65 L765.16,112 C759.450265,108.23891 752.084933,108.102659 746.24,111.65 L547.36,232.23 C542.254664,235.320104 539.050165,240.774796 538.836523,246.73865 C538.62288,252.702504 541.42886,258.37251 546.3,261.82 Z" id="Shape" stroke="#2EFFFF" fill="url(#radialGradient-6)" fill-rule="nonzero"></path>
            <path d="M546.3,249.73 L625.88,308.91 C631.773706,313.085738 639.612761,313.263808 645.69,309.36 L845.17,181.25 C850.21583,178.012181 853.280973,172.441359 853.315289,166.446136 C853.349605,160.450914 850.348435,154.845369 845.34,151.55 L765.16,99.9 C759.450265,96.1389099 752.084933,96.002659 746.24,99.55 L547.36,220.14 C542.254664,223.230104 539.050165,228.684796 538.836523,234.64865 C538.62288,240.612504 541.42886,246.28251 546.3,249.73 Z" id="Shape" fill="#F9FAFC" fill-rule="nonzero"></path>
            <path d="M684.29,199.32 L702.71,213 C704.074993,213.967497 705.890228,214.010999 707.3,213.11 L753.5,183.44 C754.665658,182.684089 755.369215,181.389302 755.369215,180 C755.369215,178.610698 754.665658,177.315911 753.5,176.56 L734.93,164.56 C733.607808,163.690211 731.903072,163.659075 730.55,164.48 L684.49,192.41 C683.288376,193.128588 682.536515,194.410671 682.496009,195.810181 C682.455502,197.209691 683.13195,198.533115 684.29,199.32 Z" id="Shape" fill="#025FCE" fill-rule="nonzero"></path>
            <path d="M712.25,219.36 L730.68,233.07 C732.048823,234.029009 733.860709,234.068484 735.27,233.17 L781.47,203.5 C782.631092,202.740865 783.330889,201.447235 783.330889,200.06 C783.330889,198.672765 782.631092,197.379135 781.47,196.62 L762.9,184.62 C761.577808,183.750211 759.873072,183.719075 758.52,184.54 L712.5,212.51 C711.318677,213.225375 710.576878,214.48741 710.526508,215.867537 C710.476139,217.247663 711.123967,218.560415 712.25,219.36 Z" id="Shape" fill="#025FCE" fill-rule="nonzero"></path>
            <path d="M712.25,216.36 L730.68,230.07 C732.048823,231.029009 733.860709,231.068484 735.27,230.17 L781.47,200.5 C782.631092,199.740865 783.330889,198.447235 783.330889,197.06 C783.330889,195.672765 782.631092,194.379135 781.47,193.62 L762.9,181.62 C761.577808,180.750211 759.873072,180.719075 758.52,181.54 L712.5,209.51 C711.318677,210.225375 710.576878,211.48741 710.526508,212.867537 C710.476139,214.247663 711.123967,215.560415 712.25,216.36 Z" id="Shape" fill="#ADCDEA" fill-rule="nonzero"></path>
            <path d="M684.29,196.32 L702.71,210 C704.074993,210.967497 705.890228,211.010999 707.3,210.11 L753.5,180.44 C754.665658,179.684089 755.369215,178.389302 755.369215,177 C755.369215,175.610698 754.665658,174.315911 753.5,173.56 L734.93,161.56 C733.607808,160.690211 731.903072,160.659075 730.55,161.48 L684.49,189.41 C683.288376,190.128588 682.536515,191.410671 682.496009,192.810181 C682.455502,194.209691 683.13195,195.533115 684.29,196.32 Z" id="Shape" fill="#ADCDEA" fill-rule="nonzero"></path>
            <path d="M684.29,193 L702.71,206.71 C704.075238,207.679898 705.893816,207.719518 707.3,206.81 L753.5,177.14 C754.665823,176.386506 755.369893,175.093128 755.369893,173.705 C755.369893,172.316872 754.665823,171.023494 753.5,170.27 L734.93,158.27 C733.607808,157.400211 731.903072,157.369075 730.55,158.19 L684.53,186.1 C683.328085,186.81248 682.571746,188.087995 682.523176,189.484371 C682.474607,190.880748 683.140494,192.205732 684.29,193 Z" id="Shape" fill="#B7E9F7" fill-rule="nonzero"></path>
            <path d="M694,186 L706.55,195.34 C707.482496,195.996224 708.7191,196.02388 709.68,195.41 L741.15,175.2 C741.942287,174.683062 742.419975,173.801014 742.419975,172.855 C742.419975,171.908986 741.942287,171.026938 741.15,170.51 L728.5,162.36 C727.59378,161.767872 726.429171,161.74458 725.5,162.3 L694.12,181.3 C693.309703,181.795459 692.805809,182.667899 692.781568,183.617359 C692.757326,184.566819 693.216042,185.463837 694,186 Z" id="Shape" fill="#4973B9" fill-rule="nonzero"></path>
            <path d="M719,214.31 L733.82,225.31 C734.919604,226.083599 736.377901,226.115215 737.51,225.39 L774.67,201.53 C775.604869,200.920957 776.168674,199.880757 776.168674,198.765 C776.168674,197.649243 775.604869,196.609043 774.67,196 L759.74,186.37 C758.673107,185.671762 757.300006,185.648423 756.21,186.31 L719.21,208.77 C718.246589,209.341791 717.639071,210.363313 717.596635,211.482824 C717.554199,212.602334 718.08264,213.666917 719,214.31 Z" id="Shape" fill="#F9FAFC" fill-rule="nonzero"></path>
            <polygon id="Shape" fill="#C4C4C4" fill-rule="nonzero" points="657.38 126.96 744.13 83.15 754.11 155.59 670.39 203.73"></polygon>
            <polygon id="Shape" fill="#8E8E8E" fill-rule="nonzero" points="661.72 129.13 748.47 85.32 758.45 157.76 674.73 205.9"></polygon>
            <polygon id="Shape" fill="#54FFFF" fill-rule="nonzero" points="669.03 131.62 742.67 94.43 751.14 155.92 680.07 196.79"></polygon>
            <polygon id="Shape" fill="url(#linearGradient-7)" fill-rule="nonzero" points="912.12 730.56 1029.59 803.26 1030.9 555.73 912.12 467.25"></polygon>
            <g id="Group" opacity="0.45" style="mix-blend-mode: multiply;" transform="translate(950.000000, 619.000000)" fill="#A1B7C6">
                <path d="M39.06,202.44 C35.52,199.98 9.92,198.72 0.93,213.6 C-2.17,219.79 7.44,222.27 23.87,215.14 C35.65,208.95 40.3,205.54 40.87,212.05 C41.44,218.56 39.94,258.22 39.94,258.22 L41.8,257.91 C42.16,248.31 44.37,206.14 39.06,202.44 Z M124,95.21 C102,90.56 81.24,138.92 68.82,160.6 C53.89,186.6 54.25,258.53 54.25,258.53 L56.11,259.46 C56.11,259.46 57.97,205.85 61.38,194.38 C65.38,182.29 91.45,159.05 102.3,149.13 C135.47,108.84 130.2,97.38 124,95.21 Z M42.47,95.21 C35.34,51.51 30.69,10.6 13.33,0.99 C8.68,-0.56 1.24,2.85 5.89,19.28 C10.54,35.71 32.55,89.28 39.06,107.91 C43.06,124.65 45.57,144.48 45.57,168.35 C45.57,192.22 44.95,260.08 44.95,260.08 C44.95,260.08 46.81,265.35 46.5,259.46 C46.19,253.57 49.29,138.91 42.47,95.21 Z M68.47,118.76 C77.47,105.44 97.61,77.85 110.94,54.61 C123.94,27.61 112.18,23 102.88,26.1 C83.97,33.23 55.45,113.8 52.04,129.3 C48.32,145.1 51.11,257.91 51.11,257.91 L52.35,257.91 C52.35,257.91 51.73,179.81 51.73,165.91 C51.73,152.01 59.52,132.09 68.51,118.76 L68.47,118.76 Z" id="Shape"></path>
            </g>
            <polygon id="Shape" fill="url(#linearGradient-8)" fill-rule="nonzero" points="1029.9 555.73 1028.59 803.26 1291.57 626.83 1294 384.58"></polygon>
            <path d="M1141.72,461.46 C1150.28,468.69 1206.88,464.46 1230.72,464.86 C1236.65617,464.971748 1242.21359,467.798367 1245.8,472.53 C1257.12,487.53 1289.61,546.34 1294.97,575.53 C1294.9,564.95 1294.97,555.88 1294.97,555.88 C1290.04,537.15 1278.32,456.88 1253.64,439.88 C1228.96,422.88 1141.72,461.46 1141.72,461.46 Z" id="Shape" fill="#9DB2BF" fill-rule="nonzero" style="mix-blend-mode: multiply;"></path>
            <polygon id="Shape" fill="url(#linearGradient-9)" fill-rule="nonzero" style="mix-blend-mode: multiply;" points="1029.59 550.25 1029.59 796.92 1299.06 627.12 1284.1 373.1"></polygon>
            <path d="M918.32,491.15 L1019,557.66 C1024.89189,561.841212 1032.73432,562.019359 1038.81,558.11 L1286.81,397.64 C1291.83167,394.400577 1294.88103,388.847126 1294.91934,382.871374 C1294.95764,376.895622 1291.97973,371.303535 1287,368 L1185.7,309 C1179.99026,305.23891 1172.62493,305.102659 1166.78,308.65 L919.38,461.56 C914.279068,464.653443 911.07832,470.107126 910.86475,476.068945 C910.651181,482.030764 913.453491,487.699494 918.32,491.15 Z" id="Shape" fill="#1C8CD1" fill-rule="nonzero"></path>
            <path d="M918.32,479.06 L1019,545.57 C1024.89189,549.751212 1032.73432,549.929359 1038.81,546.02 L1286.81,385.55 C1291.85128,382.308923 1294.91264,376.73924 1294.94695,370.746089 C1294.98125,364.752937 1291.98384,359.148574 1286.98,355.85 L1185.68,296.85 C1179.96727,293.098601 1172.60757,292.962454 1166.76,296.5 L919.33,449.5 C914.247988,452.604837 911.066761,458.056037 910.863397,464.00797 C910.660032,469.959902 913.461764,475.615527 918.32,479.06 Z" id="Shape" stroke="#2EFFFF" stroke-width="4" fill="url(#radialGradient-10)" fill-rule="nonzero"></path>
            <path d="M1238.68,342.41 C1233.90377,339.270854 1227.74807,339.158013 1222.86,342.12 L1056.52,443 C1052.25281,445.587548 1049.5757,450.150159 1049.39838,455.137431 C1049.22105,460.124704 1051.56735,464.865925 1055.64,467.75 L1104.12,503.75 L1286.86,385.52 C1289.80336,383.635162 1292.11849,380.916196 1293.51,377.71 L1238.68,342.41 Z" id="Shape" fill="#025FCE" fill-rule="nonzero"></path>
            <path d="M1075.55,444.23 L1142.11,493.72 C1147.0365,497.210354 1153.58858,497.360704 1158.67,494.1 L1325.52,387 C1329.73529,384.289739 1332.29404,379.631601 1332.32028,374.620263 C1332.34652,369.608925 1329.83668,364.92425 1325.65,362.17 L1258.6,318.96 C1253.82141,315.816657 1247.66051,315.703791 1242.77,318.67 L1076.43,419.47 C1072.16289,422.059994 1069.48628,426.624079 1069.30898,431.612549 C1069.13169,436.601019 1071.47753,441.343607 1075.55,444.23 Z" id="Shape" stroke="#2EFFFF" fill="url(#radialGradient-11)" fill-rule="nonzero"></path>
            <path d="M1075.55,434.11 L1142.11,483.61 C1147.0365,487.100354 1153.58858,487.250704 1158.67,483.99 L1325.52,376.84 C1329.73515,374.127326 1332.29339,369.467767 1332.31963,364.455246 C1332.34586,359.442725 1329.83652,354.756644 1325.65,352 L1258.6,308.8 C1253.82336,305.65356 1247.66243,305.536802 1242.77,308.5 L1076.43,409.36 C1072.16281,411.947548 1069.4857,416.510159 1069.30838,421.497431 C1069.13105,426.484704 1071.47735,431.225925 1075.55,434.11 Z" id="Shape" fill="#F9FAFC" fill-rule="nonzero"></path>
            <polygon id="Shape" fill="url(#linearGradient-12)" fill-rule="nonzero" points="638.79 892.8 756.27 971.82 757.58 763.31 638.79 674.84"></polygon>
            <polygon id="Shape" fill="url(#linearGradient-13)" fill-rule="nonzero" points="757.58 763.31 756.27 971.82 904.86 870.08 904.86 664.75"></polygon>
            <path d="M642.32,694.49 L754,768.27 C760.544494,772.909589 769.251481,773.107475 776,768.77 L896.74,688.49 C902.354725,684.898433 905.76739,678.70671 905.805765,672.04165 C905.844139,665.37659 902.502997,659.145981 896.93,655.49 L784.57,590.1 C778.232542,585.925959 770.058071,585.774147 763.57,589.71 L643.5,661.65 C637.836107,665.080857 634.28117,671.133709 634.043384,677.751407 C633.805598,684.369104 636.916949,690.661487 642.32,694.49 Z" id="Shape" fill="#1C8CD1" fill-rule="nonzero"></path>
            <path d="M642.32,681.07 L754,754.86 C760.544494,759.499589 769.251481,759.697475 776,755.36 L896.74,675.07 C902.332802,671.476604 905.729578,665.299116 905.767922,658.651526 C905.806266,652.003935 902.480977,645.787674 896.93,642.13 L784.57,576.69 C778.232542,572.515959 770.058071,572.364147 763.57,576.3 L643.5,648.24 C637.836019,651.668408 634.280587,657.719785 634.042772,664.336288 C633.804956,670.95279 636.916769,677.243807 642.32,681.07 Z" id="Shape" stroke="#2EFFFF" stroke-width="4" fill="url(#linearGradient-14)" fill-rule="nonzero"></path>
            <polygon id="Shape" fill="#CFCFDB" fill-rule="nonzero" points="827.43 316.55 760.54 286.58 760.83 281.59 817.87 263.16 885.25 289.72"></polygon>
            <polygon id="Shape" fill="#7C7291" fill-rule="nonzero" points="829.39 311.56 760.4 281.59 819.82 258.17 887.2 284.73"></polygon>
            <path d="M540.51,624.1 L428.66,540.89 C427.40015,539.956052 426.702922,538.4446 426.810197,536.880001 C426.917472,535.315401 427.814469,533.913256 429.19,533.16 L439.61,527.43 C441.184134,526.56965 443.114002,526.698307 444.56,527.76 L557.63,611.15 C558.933576,612.108707 559.63755,613.681836 559.483844,615.292676 C559.330138,616.903515 558.341361,618.315123 556.88,619.01 L545.24,624.56 C543.700495,625.298341 541.878392,625.121139 540.51,624.1 Z" id="Shape" fill="#9DB2BF" fill-rule="nonzero" opacity="0.64" style="mix-blend-mode: multiply;"></path>
            <path d="M700.44,557.18 C703.87,555.56 713.44,552.49 713.9,548.83 C714.36,545.17 720.22,504.18 710.43,494.83 C701.27,487.2 671.51,486.09 663.07,488.83 C650.62,498.4 644.34,535.17 643.22,553.23 C644.51,555.59 655.97,563.92 664.69,565.05 C680.79,567.15 700.44,557.21 700.44,557.21" id="Shape" fill="#2B1B40" fill-rule="nonzero"></path>
            <polygon id="Shape" fill="#FF81A8" fill-rule="nonzero" points="669.94 554.63 705.2 559.25 720.55 591.09 686.93 595.66 671.51 589.12"></polygon>
            <polygon id="Shape" fill="#F4A891" fill-rule="nonzero" points="671.51 529.67 677.87 550.95 653.96 566.68 708.44 570.12 705.2 559.25 694.6 554.63 688.32 528.62"></polygon>
            <path d="M693.94,551.9 L691.2,540.55 L681.77,529 L671.51,529.64 L677.87,551 L673.87,553.61 C680.515032,552.598553 687.219638,552.027308 693.94,551.9 Z" id="Shape" fill="#D17B6D" fill-rule="nonzero"></path>
            <path d="M707.92,511.39 C708.57,520.39 708.6,536.23 708.09,538.58 C706.58,545.44 692.66,550.93 692.66,550.93 C688.37,551.36 670.93,545.27 668.79,536.93 C667.07,530.28 662.36,513.69 668.46,500.41 C672.11,492.47 703.85,479.87 707.92,511.41" id="Shape" fill="#F4A891" fill-rule="nonzero"></path>
            <path d="M664.73,534.13 C666.13,535.88 668.3,536.46 669.57,535.44 C670.84,534.42 670.74,532.18 669.34,530.44 C667.94,528.7 665.78,528.11 664.5,529.13 C663.22,530.15 663.33,532.4 664.73,534.13" id="Shape" fill="#F4A891" fill-rule="nonzero"></path>
            <path d="M700.1,498.52 C700.1,498.52 681.1,501.52 670.79,512.18 C668.21,516.76 671.67,536.48 671.36,536.89 C671.05,537.3 667.71,529.27 666.8,528.73 C665.89,528.19 660.49,521.45 659.92,516.42 C659.35,511.39 670.33,489.27 678.34,488.13 C686.35,486.99 711.94,492.72 710.34,516.33 C707.69,509.96 705.23,501.33 700.08,498.52" id="Shape" fill="#2B1B40" fill-rule="nonzero"></path>
            <path d="M672.22,567.72 L704.53,566.15 L717.38,581.63 L728.65,655.71 L716.83,677.71 C716.83,677.71 681.89,675.97 681.34,674.66 C680.79,673.35 672.26,652 672.26,652 L672.22,567.72 Z" id="Shape" fill="#D4CFF9" fill-rule="nonzero"></path>
            <path d="M687.6,604.73 C689.733131,604.296586 691.951229,604.705089 693.79,605.87 C696.88,607.87 701.42,608 703.69,605.55 C705.96,603.1 709.47,601.13 712.56,601.46 C715.65,601.79 715,627 715,627 L721.81,652.17 C721.81,652.17 716.44,659.85 715.62,660.17 C714.8,660.49 681.78,662.94 681.78,662.94 L678.27,613.16 L687.6,604.73 Z" id="Shape" fill="#AEABDD" fill-rule="nonzero"></path>
            <path d="M676.52,551.83 L648.17,566.7 C648.17,566.7 661.39,614.98 662.32,620.57 C663.25,626.16 648.74,661.76 648.74,661.76 L691.53,665.88 L686,617.55 L689.23,598.91 L676.52,551.83 Z" id="Shape" fill="url(#radialGradient-15)" fill-rule="nonzero"></path>
            <path d="M696.45,555.19 L700.08,563.28 L712.56,601.46 C712.56,601.46 710.67,614.46 710.83,615.3 C710.99,616.14 719.78,661.69 719.78,661.69 L735.68,656.69 C735.68,656.69 728.05,611.46 727.25,609.47 C726.45,607.48 728.72,598.05 728.72,598.05 L717.93,567.47 L696.45,555.19 Z" id="Shape" fill="url(#radialGradient-16)" fill-rule="nonzero"></path>
            <path d="M734.89,681 L682.41,649.67 C681.574305,649.179975 681.060896,648.283767 681.060896,647.315 C681.060896,646.346233 681.574305,645.450025 682.41,644.96 L749.61,606 C750.464184,605.494636 751.525816,605.494636 752.38,606 L805.83,637.61 C806.67053,638.098766 807.187666,638.997692 807.187666,639.97 C807.187666,640.942308 806.67053,641.841234 805.83,642.33 L737.66,681 C736.804079,681.498976 735.745921,681.498976 734.89,681 Z" id="Shape" fill="#025FCE" fill-rule="nonzero"></path>
            <path d="M807.17,635.12 L807.17,630.19 L801.22,629.95 L752.38,601.07 C751.525816,600.564636 750.464184,600.564636 749.61,601.07 L687.42,637.07 L681.07,637.07 L681.07,642.35 C681.07139,643.312094 681.580925,644.201879 682.41,644.69 L734.89,676 C735.747041,676.494813 736.802959,676.494813 737.66,676 L805.8,637.37 C806.62546,636.898516 807.144879,636.03029 807.17,635.08 L807.17,635.12 Z" id="Shape" fill="#C4D0D8" fill-rule="nonzero"></path>
            <path d="M734.89,670 L682.41,638.67 C681.574305,638.179975 681.060896,637.283767 681.060896,636.315 C681.060896,635.346233 681.574305,634.450025 682.41,633.96 L749.61,595 C750.464184,594.494636 751.525816,594.494636 752.38,595 L805.83,626.61 C806.67053,627.098766 807.187666,627.997692 807.187666,628.97 C807.187666,629.942308 806.67053,630.841234 805.83,631.33 L737.66,670 C736.804079,670.498976 735.745921,670.498976 734.89,670 Z" id="Shape" fill="#FFF9FF" fill-rule="nonzero"></path>
            <path d="M741.92,661.67 L709.54,642.33 C709.024984,642.028638 708.708469,641.476708 708.708469,640.88 C708.708469,640.283292 709.024984,639.731362 709.54,639.43 L750.99,615.43 C751.522717,615.124799 752.177283,615.124799 752.71,615.43 L785.71,634.94 C786.229869,635.240083 786.550134,635.794739 786.550134,636.395 C786.550134,636.995261 786.229869,637.549917 785.71,637.85 L743.71,661.69 C743.157222,662.02112 742.465242,662.013389 741.92,661.67 Z" id="Shape" fill="#C4D0D8" fill-rule="nonzero"></path>
            <path d="M806.68,570.55 L803.54,568.38 C803.244327,568.057493 802.878137,567.807663 802.47,567.65 L802.2,567.47 L802.12,567.54 C801.439737,567.374971 800.721905,567.482646 800.12,567.84 L732.81,606.15 C731.961628,606.637419 731.438971,607.541577 731.44,608.52 L731.44,670.05 C731.432852,671.170905 732.116536,672.180532 733.16,672.59 L734.94,673.59 L735.12,672.59 C735.27128,672.541954 735.415787,672.474741 735.55,672.39 L802.87,633.52 C803.70993,633.030334 804.227476,632.13224 804.23,631.16 L804.23,570.55 L806.68,570.55 Z" id="Shape" fill="#C4D0D8" fill-rule="nonzero"></path>
            <path d="M734.39,672 L734.39,610.43 C734.388971,609.451577 734.911628,608.547419 735.76,608.06 L803.07,569.74 C803.915861,569.249246 804.959608,569.248412 805.806252,569.737813 C806.652896,570.227215 807.173099,571.132089 807.17,572.11 L807.17,633.11 C807.175158,634.084301 806.660676,634.987503 805.82,635.48 L738.5,674.32 C737.661239,674.811504 736.624384,674.819883 735.777789,674.341999 C734.931193,673.864116 734.402603,672.972079 734.39,672 Z" id="Shape" fill="#DFE6EA" fill-rule="nonzero"></path>
            <path d="M785.5,131.81 C787.5,143.45 788.35,170.54 797.99,178.09 C800.5,178.29 828.99,182.09 829.53,175.26 C829.9,170.7 831.68,144.6 831.88,138.01 C832.45,119.33 787.63,109.85 785.5,131.81 Z" id="Shape" fill="#F4A891" fill-rule="nonzero"></path>
            <path d="M809.39,154.26 C808.46,152.81 805.01,154.62 804.88,155.9 C804.75,157.18 803.97,163.82 803.97,163.82 L802.38,164.18 C801.211211,156.279913 798.196322,148.766672 793.58,142.25 C789.49,144.43 779.73,143.49 777.84,133.86 C776.62,127.65 777.79,118.16 786.73,121.42 C802.6,103.23 831.2,114.22 833.05,128.19 C840.33,183 819,176.74 809.39,154.26 Z" id="Shape" fill="#2B1B40" fill-rule="nonzero"></path>
            <ellipse id="Oval" fill="#9DB2BF" fill-rule="nonzero" style="mix-blend-mode: multiply;" cx="1013.41" cy="925.44" rx="28.02" ry="9.54"></ellipse>
            <path d="M981,870.66 L990.47,919.41 C990.47,924.3 1001.07,928.27 1014.14,928.27 C1027.21,928.27 1037.81,924.27 1037.81,919.41 L1047.28,870.66 L981,870.66 Z" id="Shape" fill="url(#radialGradient-17)" fill-rule="nonzero"></path>
            <path d="M1047.24,870.66 L981,870.66 L983,881.18 C994.22,889.25 1019.35,901.76 1040.72,904.27 L1047.24,870.66 Z" id="Shape" fill="#B87AB7" fill-rule="nonzero" style="mix-blend-mode: multiply;"></path>
            <ellipse id="Oval" fill="#A55B97" fill-rule="nonzero" cx="1013.59" cy="874.83" rx="42.52" ry="14.76"></ellipse>
            <ellipse id="Oval" fill="#CC89B9" fill-rule="nonzero" cx="1013.59" cy="872.49" rx="42.52" ry="14.76"></ellipse>
            <ellipse id="Oval" fill="#B87AB7" fill-rule="nonzero" style="mix-blend-mode: multiply;" cx="1014.1" cy="870.66" rx="33.14" ry="10.59"></ellipse>
            <ellipse id="Oval" stroke="#FFFFFF" stroke-width="1.45" cx="684.66" cy="526.38" rx="9.46" ry="13.71"></ellipse>
            <ellipse id="Oval" stroke="#FFFFFF" stroke-width="1.35" cx="705.24" cy="519.54" rx="8.79" ry="12.74"></ellipse>
            <path d="M775.58,621 C774.976515,621.732198 774.126798,622.219274 773.19,622.37 C770.78,622.71 768.47,620.57 768.04,617.58 C767.928429,616.745301 767.975933,615.897023 768.18,615.08 C767.90596,615.081713 767.632218,615.098404 767.36,615.13 C763.22,615.73 760.46,620.36 761.19,625.48 C761.92,630.6 765.87,634.27 770.01,633.67 C774.15,633.07 776.91,628.45 776.17,623.33 C776.059827,622.533958 775.861958,621.752542 775.58,621 Z" id="Shape" fill="#FFF9FF" fill-rule="nonzero"></path>
            <path d="M826.89,294.11 C839.253608,293.566648 851.544881,291.930266 863.62,289.22 C864.43,284.78 865.24,280.28 865,275.77 C864.76,271.26 863.39,266.66 860.32,263.34 C854.85,257.44 845.75,257.03 837.72,257.64 C829.14,258.3 820.96,260.45 812.6,262.47 C804.6,254.37 793.24,252.1 782.17,249.35 C775.06,247.59 766.47,246.21 761.35,251.44 C759.06,253.78 757.98,257.03 757.04,260.17 C749.979662,283.84729 746.5837,308.465482 746.97,333.17 L752.45,334.4 C756.37,314.48 760.09,297.92 764.01,278.01 C764.36,276.24 764.78,274.34 766.11,273.13 C767.44,271.92 769.73,271.66 771.69,271.87 C776.46,272.37 778.21,271.96 782.49,274.11 C794.49,280.16 808.33,286.67 820.64,292.78 C822.580233,293.736418 824.72846,294.19356 826.89,294.11 Z" id="Shape" fill="#313656" fill-rule="nonzero"></path>
            <polyline id="Shape" fill="#03154C" fill-rule="nonzero" points="751.17 331.49 751.17 337.42 749.66 337.42 749.66 335.15 746.17 335.68 744.43 337.42 737.45 337.42 739.89 334.1 747.07 333.75 748.62 333.58 748.44 331.31"></polyline>
            <polygon id="Shape" fill="#727272" fill-rule="nonzero" points="761.26 269.01 770.81 262.51 817.22 284.19 799.87 292.87"></polygon>
            <path d="M808.24,296.27 C820.613317,295.731126 832.914652,294.098087 845,291.39 C845.81,286.95 846.62,282.45 846.38,277.94 C846.14,273.43 844.76,268.83 841.69,265.51 C836.23,259.6 827.12,259.2 819.1,259.81 C810.52,260.47 802.34,262.62 793.98,264.64 C785.98,256.54 774.62,254.27 763.54,251.52 C756.44,249.76 747.85,248.38 742.73,253.61 C740.43,255.95 739.36,259.19 738.42,262.33 C731.362271,286.008064 727.963063,310.625341 728.34,335.33 L733.82,336.55 C737.75,316.64 741.47,300.08 745.39,280.17 C745.74,278.4 746.16,276.5 747.49,275.29 C748.82,274.08 751.11,273.82 753.07,274.02 C757.83,274.53 759.58,274.12 763.87,276.27 C775.87,282.32 789.71,288.82 802.02,294.94 C803.949823,295.895546 806.088156,296.352778 808.24,296.27 Z" id="Shape" fill="#3D4067" fill-rule="nonzero"></path>
            <polyline id="Shape" fill="#03154C" fill-rule="nonzero" points="733.18 332.88 733.18 340.41 731.26 340.41 731.26 337.53 726.83 338.2 724.62 340.41 715.75 340.41 718.85 336.2 727.97 335.76 729.93 335.54 729.71 332.65"></polyline>
            <path d="M856.21,207.74 C854.37,200.31 851.53,192.97 846.69,187.04 C841.63,180.83 835.43,176.5 828.61,172.29 C822.31,173.62 822.4,174.04 816.33,176.17 C813.609845,177.010731 811.021234,178.229297 808.64,179.79 C807.25,182.5 795.5,221.79 795.26,240.04 C794.84,249.84 789.4,262.04 795.95,270.4 C798.95,274.16 802.13,278.1 806.67,279.59 C809.553457,280.360336 812.558954,280.564099 815.52,280.19 C822.279042,279.711994 829.006158,278.857333 835.67,277.63 C842.33,276.41 847.17,275.58 850.05,269.43 C853.067461,263.076988 855.361842,256.40517 856.89,249.54 C859.861129,235.737831 859.628504,221.438223 856.21,207.74 Z" id="Shape" fill="url(#linearGradient-18)" fill-rule="nonzero"></path>
            <path d="M1016.26,876.91 C1016.26,876.91 1013.47,764.1 1017.19,748.3 C1020.6,732.8 1049.12,652.23 1068.03,645.1 C1077.33,642 1089.11,646.65 1076.09,673.61 C1062.76,696.85 1042.61,724.44 1033.62,737.76 C1024.63,751.08 1016.88,770.92 1016.88,784.87 C1016.88,798.82 1017.5,876.87 1017.5,876.87 L1016.26,876.91 Z" id="Shape" fill="url(#radialGradient-19)"></path>
            <path d="M1011.61,878.46 C1011.3,872.57 1014.4,757.91 1007.61,714.21 C1000.48,670.51 995.83,629.6 978.47,619.99 C973.82,618.44 966.38,621.85 971.03,638.28 C975.68,654.71 997.69,708.28 1004.2,726.91 C1008.2,743.65 1010.71,763.48 1010.71,787.35 C1010.71,811.22 1010.09,879.08 1010.09,879.08 C1010.09,879.08 1011.92,884.35 1011.61,878.46 Z" id="Shape" fill="url(#radialGradient-20)"></path>
            <path d="M1019.36,877.53 C1019.36,877.53 1019,805.65 1033.93,779.6 C1046.36,757.92 1067.1,709.6 1089.11,714.21 C1095.31,716.38 1100.58,727.84 1067.41,768.13 C1056.56,778.05 1030.52,801.29 1026.49,813.38 C1023.08,824.85 1021.22,878.46 1021.22,878.46" id="Shape" fill="url(#radialGradient-21)"></path>
            <path d="M1004.17,821.44 C1000.64,819 975,817.72 966,832.6 C962.9,838.79 972.51,841.27 988.94,834.14 C1000.72,827.95 1005.37,824.54 1005.94,831.05 C1006.51,837.56 1005.01,877.22 1005.01,877.22 L1006.87,876.91 C1007.27,867.31 1009.48,825.14 1004.17,821.44 Z" id="Shape" fill="url(#radialGradient-22)"></path>
            <ellipse id="Oval" fill="#9DB2BF" fill-rule="nonzero" style="mix-blend-mode: multiply;" cx="396.08" cy="485.54" rx="28.02" ry="9.54"></ellipse>
            <path d="M363.63,430.76 L373.1,479.51 C373.1,484.4 383.7,488.37 396.78,488.37 C409.86,488.37 420.45,484.37 420.45,479.51 L429.92,430.76 L363.63,430.76 Z" id="Shape" fill="url(#radialGradient-23)" fill-rule="nonzero"></path>
            <path d="M429.92,430.76 L363.63,430.76 L365.68,441.28 C376.89,449.35 402.02,461.86 423.39,464.37 L429.92,430.76 Z" id="Shape" fill="#B87AB7" fill-rule="nonzero" style="mix-blend-mode: multiply;"></path>
            <ellipse id="Oval" fill="#A55B97" fill-rule="nonzero" cx="396.27" cy="434.92" rx="42.52" ry="14.76"></ellipse>
            <ellipse id="Oval" fill="#CC89B9" fill-rule="nonzero" cx="396.27" cy="432.58" rx="42.52" ry="14.76"></ellipse>
            <ellipse id="Oval" fill="#B87AB7" fill-rule="nonzero" style="mix-blend-mode: multiply;" cx="396.78" cy="430.76" rx="33.14" ry="10.59"></ellipse>
            <path d="M398.94,437 C398.94,437 396.15,324.19 399.87,308.39 C403.28,292.89 431.8,212.31 450.71,205.18 C460.01,202.08 471.78,206.73 458.77,233.7 C445.44,256.94 425.29,284.52 416.3,297.85 C407.31,311.18 399.56,331 399.56,345 C399.56,359 400.18,437 400.18,437 L398.94,437 Z" id="Shape" fill="url(#radialGradient-24)"></path>
            <path d="M394.29,438.56 C393.98,432.67 397.08,318 390.29,274.3 C383.16,230.61 378.51,189.7 361.15,180.09 C356.5,178.54 349.06,181.95 353.71,198.38 C358.36,214.81 380.37,268.38 386.88,287.01 C390.88,303.75 393.39,323.58 393.39,347.44 C393.39,371.3 392.77,439.18 392.77,439.18 C392.77,439.18 394.6,444.45 394.29,438.56 Z" id="Shape" fill="url(#radialGradient-25)"></path>
            <path d="M402,437.63 C402,437.63 401.64,365.74 416.57,339.7 C428.99,318.02 449.74,269.7 471.74,274.3 C477.94,276.47 483.21,287.94 450.05,328.23 C439.2,338.15 413.16,361.39 409.13,373.48 C405.72,384.94 403.86,438.56 403.86,438.56" id="Shape" fill="url(#radialGradient-26)"></path>
            <path d="M386.85,381.53 C383.31,379.07 357.71,377.82 348.72,392.69 C345.62,398.89 355.23,401.37 371.66,394.24 C383.44,388.04 388.09,384.63 388.66,391.14 C389.23,397.65 387.73,437.32 387.73,437.32 L389.59,437.01 C390,427.4 392.16,385.24 386.85,381.53 Z" id="Shape" fill="url(#radialGradient-27)"></path>
            <path d="M561.58,377.59 L442.58,292.43 C440.808435,291.383308 438.586778,291.477347 436.91,292.67 L427.52,298.5 L434.68,300.71 L434.68,511.17 C434.683346,513.039097 435.676462,514.766586 437.29,515.71 L551.57,597.71 L551.28,606.71 L560.84,600.81 C562.865743,600.041961 564.201307,598.096424 564.19,595.93 L564.19,382.12 C564.187176,380.253384 563.193449,378.52864 561.58,377.59 Z" id="Shape" fill="#C5D3DE" fill-rule="nonzero"></path>
            <path d="M546.81,606.36 L427.81,521.59 C426.198813,520.645552 425.209233,518.917593 425.21,517.05 L425.21,302.84 C425.206597,300.960033 426.210565,299.222309 427.840925,298.286247 C429.471285,297.350184 431.478162,297.359249 433.1,298.31 L552.1,383.47 C553.711102,384.409673 554.701293,386.13489 554.7,388 L554.7,601.83 C554.697162,603.707323 553.692118,605.440258 552.064052,606.375004 C550.435985,607.309749 548.432701,607.304028 546.81,606.36 Z" id="Shape" fill="#FEFFFF" fill-rule="nonzero"></path>
            <path d="M539.53,575.21 L435.07,498.92 C433.458898,497.980327 432.468707,496.25511 432.47,494.39 L432.47,326.39 C432.472838,324.512677 433.477882,322.779742 435.105948,321.844996 C436.734015,320.910251 438.737299,320.915972 440.36,321.86 L544.82,398.5 C546.431102,399.439673 547.421293,401.16489 547.42,403.03 L547.42,570.68 C547.417162,572.557323 546.412118,574.290258 544.784052,575.225004 C543.155985,576.159749 541.152701,576.154028 539.53,575.21 Z" id="Shape" fill="url(#linearGradient-28)" fill-rule="nonzero"></path>
            <polygon id="Shape" fill="#67FF79" fill-rule="nonzero" points="496.46 427.14 493.15 429.96 525.09 424.94 528.82 422.2"></polygon>
            <polygon id="Shape" fill="#67FF79" fill-rule="nonzero" points="510.85 404.54 493.15 429.96 496.46 427.14 514.27 401.4"></polygon>
            <polygon id="Shape" fill="#98FFAF" fill-rule="nonzero" points="514.27 401.4 496.46 427.14 498.52 425.69 515.26 401.39"></polygon>
            <path d="M526.58,415.56 C525.616544,413.748149 524.541127,411.998092 523.36,410.32 C522.18102,408.656683 520.905496,407.063948 519.54,405.55 C518.203871,404.073128 516.774262,402.683601 515.26,401.39 L498.52,425.69 L529.06,421.11 C528.367859,419.202775 527.539042,417.347961 526.58,415.56 Z" id="Shape" fill="#98FFAF" fill-rule="nonzero"></path>
            <polygon id="Shape" fill="#98FFAF" fill-rule="nonzero" points="498.52 425.69 496.46 427.14 528.82 422.2 529.06 421.11"></polygon>
            <path d="M531.72,434.49 C531.67,434.18 531.62,433.84 531.56,433.49 C531.5,433.14 531.43,432.76 531.36,432.38 C531.29,432 531.21,431.61 531.14,431.22 L530.78,429.75 C530.66,429.27 530.53,428.75 530.4,428.33 C530.27,427.91 530.15,427.44 530.02,427.03 C529.89,426.62 529.76,426.24 529.64,425.9 L500.92,430.53 L531.82,435.34 C531.8,435.09 531.76,434.8 531.72,434.49 Z" id="Shape" fill="#FFFF8C" fill-rule="nonzero"></path>
            <polygon id="Shape" fill="#E3FF7B" fill-rule="nonzero" points="496.46 431.16 493.13 433.92 527.61 439.03 531.46 436.54"></polygon>
            <polygon id="Shape" fill="url(#linearGradient-29)" fill-rule="nonzero" points="529.01 425.92 496.46 431.16 500.92 430.52 529.64 425.89"></polygon>
            <polygon id="Shape" fill="#FFFF8C" fill-rule="nonzero" points="500.92 430.52 496.46 431.16 531.46 436.54 531.82 435.33"></polygon>
            <polygon id="Shape" fill="url(#linearGradient-30)" fill-rule="nonzero" points="493.13 433.92 495.98 434.51 526.21 438.99 527.61 439.03"></polygon>
            <polygon id="Shape" fill="#FF90C0" fill-rule="nonzero" points="491.56 426.78 491.03 428.18 509.45 402.09 509.55 401.33"></polygon>
            <polygon id="Shape" fill="#FF90C0" fill-rule="nonzero" points="451.7 411.17 451.93 411.75 486.86 430.94 487.81 431.02"></polygon>
            <polygon id="Shape" fill="#EF80A7" fill-rule="nonzero" points="454.21 407.77 451.7 411.17 487.81 431.02 491.03 428.18"></polygon>
            <path d="M454.47,406.57 C454.38,406.7 454.28,406.83 454.19,406.97 L453.71,407.65 C453.53,407.92 453.36,408.19 453.19,408.46 L453,408.78 L452.65,409.36 L452.35,409.91 L452.08,410.41 L451.72,411.13 L454.23,407.73 C454.43,407.31 454.64,406.9 454.86,406.5 C455.08,406.1 455.31,405.7 455.54,405.31 C455.77,404.92 456.01,404.54 456.26,404.16 C456.51,403.78 456.77,403.42 457.04,403.06 L454.47,406.57 Z" id="Shape" fill="#FF90C0" fill-rule="nonzero"></path>
            <path d="M455.93,406.15 L456.17,405.69 L456.32,405.42 L456.5,405.11 L456.65,404.83 C456.71,404.73 456.77,404.63 456.84,404.53 C456.91,404.43 456.94,404.35 457,404.26 C457.06,404.17 457.12,404.06 457.19,403.96 C457.24082,403.869648 457.297613,403.782788 457.36,403.7 L457.55,403.4 L457.73,403.14 C457.8,403.04 457.87,402.95 457.93,402.85 L458.11,402.6 L458.33,402.31 L458.51,402.06 C458.58,401.97 458.66,401.88 458.73,401.78 L458.92,401.54 L459.15,401.26 L459.34,401.03 L459.58,400.75 L459.77,400.54 C459.85134,400.438687 459.938135,400.341877 460.03,400.25 L460.21,400.05 L460.5,399.75 L460.67,399.57 C460.78,399.45 460.9,399.33 461.02,399.22 L461.13,399.1 L461.61,398.65 C461.658553,398.598137 461.712151,398.551239 461.77,398.51 L462.09,398.21 L462.31,398.02 L462.59,397.78 L462.81,397.6 L463.1,397.36 L463.33,397.18 L463.61,396.96 L463.85,396.78 L464.14,396.56 L464.39,396.39 L464.67,396.18 L464.93,396.01 L465.22,395.81 L465.48,395.64 L465.77,395.46 L466.04,395.29 L466.34,395.11 L466.61,394.95 L466.91,394.78 L467.19,394.63 L467.49,394.46 L467.77,394.32 L468.08,394.16 L468.36,394.02 L468.68,393.86 L468.96,393.73 L469.29,393.58 L469.57,393.46 L469.9,393.32 L470.19,393.2 L470.53,393.06 L470.81,392.95 L471.16,392.82 L471.52,392.69 L471.36,392.75 L471.28,392.75 L471.23,392.75 L471.15,392.75 L471.04,392.75 L470.79,392.84 L470.59,392.91 L469.95,393.15 L469.74,393.24 L469.31,393.41 L469.06,393.51 L468.68,393.67 L468.41,393.79 L468.06,393.96 L467.78,394.08 L467.44,394.25 L467.17,394.39 L466.84,394.56 L466.56,394.71 L466.24,394.88 L465.97,395.04 L465.77,395.15 L465.65,395.22 L465.54,395.28 L465.38,395.38 L465.07,395.57 L464.8,395.74 L464.49,395.93 L464.23,396.11 L463.93,396.31 L463.67,396.49 L463.37,396.7 L463.12,396.89 L462.82,397.11 L462.58,397.3 L462.29,397.53 L462.05,397.72 L461.76,397.96 L461.53,398.15 L461.47,398.2 L461.24,398.4 L461.06,398.56 L460.77,398.83 L460.56,399.02 L460.25,399.32 L460.07,399.5 L459.71,399.86 L459.59,399.99 C459.43,400.15 459.27,400.32 459.12,400.49 L459.01,400.61 L458.66,401 L458.49,401.19 L458.21,401.52 L458.03,401.74 L457.81,402.01 L457.81,402.06 L457.63,402.3 L457.39,402.6 L457.39,402.66 L457.26,402.85 L457.02,403.17 L456.84,403.42 L456.62,403.74 L456.44,404 L456.23,404.33 C456.17,404.42 456.11,404.51 456.06,404.6 L455.85,404.92 C455.8,405.02 455.74,405.11 455.69,405.2 C455.64,405.29 455.55,405.42 455.49,405.53 L455.33,405.81 L455.14,406.15 L454.98,406.44 L454.9,406.59 C454.9,406.67 454.81,406.75 454.77,406.84 L454.72,406.93 L454.72,406.98 L454.66,407.09 L454.53,407.35 C454.53,407.44 454.44,407.52 454.4,407.61 L455.8,406.61 L456.09,406.02 L455.93,406.15 Z" id="Shape" fill="#FF90C0" fill-rule="nonzero"></path>
            <polygon id="Shape" fill="#FF90C0" fill-rule="nonzero" points="455.61 406.79 454.21 407.77 491.03 428.18 491.56 426.78"></polygon>
            <path d="M504.37,397.54 C502.517479,396.370968 500.582372,395.338243 498.58,394.45 C496.545582,393.552851 494.446271,392.810737 492.3,392.23 C490.121827,391.642173 487.896854,391.244019 485.65,391.04 C482.469687,390.734216 479.2623,390.872204 476.12,391.45 C473.170817,391.99848 470.31962,392.982581 467.66,394.37 C465.070732,395.729216 462.70907,397.483594 460.66,399.57 C458.594225,401.685191 456.888367,404.12406 455.61,406.79 L491.55,426.79 L509.55,401.34 C507.914839,399.9531 506.183876,398.683282 504.37,397.54 Z" id="Shape" fill="#FF90C0" fill-rule="nonzero"></path>
            <path d="M491.4,426.12 L456.27,406.59 C457.502593,404.136642 459.104593,401.887096 461.02,399.92 C463.029569,397.871612 465.347681,396.150742 467.89,394.82 C470.504221,393.452687 473.308759,392.485256 476.21,391.95 C478.228463,391.575708 480.277128,391.388249 482.33,391.39 C483.41,391.39 484.51,391.44 485.6,391.54 C487.819858,391.743673 490.018007,392.13847 492.17,392.72 C494.290722,393.286854 496.36374,394.019097 498.37,394.91 C500.349575,395.771079 502.264533,396.773674 504.1,397.91 C505.765064,398.956139 507.358591,400.112031 508.87,401.37 L491.4,426.07 L491.4,426.12 Z" id="Shape" fill="#FF90C0" fill-rule="nonzero"></path>
            <path d="M475.27,477 L474.17,476.54 C472.696545,475.903291 471.257861,475.188957 469.86,474.4 C468.450026,473.596365 467.081611,472.721914 465.76,471.78 C464.426667,470.826667 463.14,469.81 461.9,468.73 C459.719291,466.820737 457.711489,464.722584 455.9,462.46 C454.081562,460.193149 452.471682,457.766616 451.09,455.21 C449.706396,452.655482 448.564758,449.977151 447.68,447.21 C446.804082,444.449011 446.201194,441.608737 445.88,438.73 L445.95,439.38 C446.261201,442.198856 446.854165,444.979421 447.72,447.68 C448.585701,450.388826 449.703946,453.010341 451.06,455.51 C453.765456,460.50996 457.337619,464.989553 461.61,468.74 C462.43,469.46 463.27,470.15 464.13,470.8 L464.41,471.02 L464.46,471.02 L465.38,471.7 L466.38,472.38 C466.71,472.6 467.04,472.82 467.38,473.03 C468.05,473.46 468.73,473.87 469.38,474.26 L469.58,474.37 C470.877388,475.106258 472.212561,475.773845 473.58,476.37 C474.29,476.68 475.02,476.97 475.74,477.24 L476.17,477.39 L476.29,477.39 L476.83,477.58 C477.19,477.71 477.56,477.82 477.93,477.94 L478.55,478.13 C477.49,477.87 476.37,477.48 475.27,477 Z" id="Shape" fill="url(#linearGradient-31)" fill-rule="nonzero"></path>
            <path d="M505.51,475.88 C504.528797,476.267277 503.527329,476.6011 502.51,476.88 C501.449253,477.170518 500.374561,477.407484 499.29,477.59 C498.18,477.77 497.04,477.9 495.88,477.98 C493.148014,478.156912 490.404858,478.032833 487.7,477.61 C484.944634,477.175954 482.240668,476.462268 479.63,475.48 C476.950166,474.485278 474.371733,473.236245 471.93,471.75 C469.432276,470.233964 467.073135,468.500581 464.88,466.57 C462.654635,464.611065 460.606675,462.459368 458.76,460.14 C456.898214,457.818976 455.248275,455.335702 453.83,452.72 C452.409159,450.107937 451.234108,447.369499 450.32,444.54 C449.413329,441.721871 448.786961,438.82115 448.45,435.88 C448.240784,434.041126 448.153927,432.190386 448.19,430.34 C448.227931,428.594662 448.384963,426.853949 448.66,425.13 C448.929986,423.485256 449.31425,421.861323 449.81,420.27 C450.283783,418.745887 450.868684,417.258566 451.56,415.82 L449,419.08 C447.615858,421.979094 446.649583,425.059728 446.13,428.23 C445.846122,429.922778 445.685699,431.633956 445.65,433.35 C445.603679,435.159792 445.680523,436.970639 445.88,438.77 C446.201194,441.648737 446.804082,444.489011 447.68,447.25 C448.564758,450.017151 449.706396,452.695482 451.09,455.25 C452.471682,457.806616 454.081562,460.233149 455.9,462.5 C457.711489,464.762584 459.719291,466.860737 461.9,468.77 C464.046057,470.634914 466.351559,472.307992 468.79,473.77 C471.18383,475.216718 473.708249,476.435403 476.33,477.41 C478.896841,478.33865 481.550005,479.008641 484.25,479.41 C486.896742,479.810062 489.578859,479.924052 492.25,479.75 C493.372756,479.673873 494.490884,479.540365 495.6,479.35 C496.667693,479.169751 497.725686,478.936125 498.77,478.65 L499.14,478.55 C500.04,478.29 500.91,478 501.77,477.67 L502.84,477.23 C503.41,476.99 503.98,476.72 504.54,476.44 L508.29,474.54 C507.388672,475.037433 506.460596,475.484779 505.51,475.88 Z" id="Shape" fill="#56CFD1" fill-rule="nonzero"></path>
            <path d="M525.63,441.38 L489.63,436.16 L452.47,415.87 C451.838204,417.197236 451.309964,418.57133 450.89,419.98 C450.432801,421.50383 450.081957,423.057567 449.84,424.63 C449.581701,426.318344 449.438039,428.022242 449.41,429.73 C449.382651,431.55391 449.472838,433.377687 449.68,435.19 C450.017612,438.097454 450.640616,440.964613 451.54,443.75 C452.452725,446.546446 453.617508,449.254232 455.02,451.84 C457.832902,457.014305 461.536283,461.651995 465.96,465.54 C468.13548,467.455578 470.478174,469.172438 472.96,470.67 C475.377629,472.143634 477.928942,473.385808 480.58,474.38 C483.168007,475.353453 485.84854,476.060443 488.58,476.49 C491.25091,476.915885 493.960908,477.043336 496.66,476.87 C499.02952,476.727802 501.376602,476.328798 503.66,475.68 C505.791397,475.072158 507.850214,474.233878 509.8,473.18 C511.665027,472.172236 513.415259,470.965179 515.02,469.58 C516.587111,468.221651 518.008145,466.703424 519.26,465.05 C520.505637,463.404595 521.584294,461.639215 522.48,459.78 C523.383242,457.911914 524.109741,455.963425 524.65,453.96 C525.196614,451.93317 525.561392,449.861632 525.74,447.77 C525.893322,445.640964 525.85651,443.502497 525.63,441.38 Z" id="Shape" fill="#54FFFF" fill-rule="nonzero"></path>
            <path d="M525.16,441.82 L489.53,436.66 L489.44,436.66 L489.36,436.66 L452.67,416.66 C452.152023,417.817427 451.707802,419.006469 451.34,420.22 C450.899197,421.721205 450.565031,423.251683 450.34,424.8 C450.089356,426.455518 449.949047,428.125868 449.92,429.8 C449.882816,431.600505 449.969688,433.401433 450.18,435.19 C450.516639,438.045033 451.126091,440.861237 452,443.6 C452.897535,446.367034 454.049108,449.04511 455.44,451.6 C458.227341,456.719815 461.893145,461.309686 466.27,465.16 C468.412162,467.057871 470.721567,468.758128 473.17,470.24 C475.558344,471.692222 478.0757,472.920772 480.69,473.91 C483.242919,474.868285 485.886445,475.565185 488.58,475.99 C490.468714,476.288442 492.377853,476.438899 494.29,476.44 C495.04,476.44 495.8,476.44 496.55,476.37 C498.885749,476.226002 501.19914,475.830379 503.45,475.19 C505.532347,474.591654 507.544005,473.770227 509.45,472.74 C511.281201,471.746079 513.000962,470.559343 514.58,469.2 C516.118375,467.863022 517.515675,466.371898 518.75,464.75 C519.97268,463.127034 521.03436,461.388827 521.92,459.56 C522.808289,457.721094 523.521437,455.802626 524.05,453.83 C524.591511,451.833014 524.952957,449.791515 525.13,447.73 C525.300001,445.764062 525.310034,443.787563 525.16,441.82 Z" id="Shape" fill="#54FFFF" fill-rule="nonzero"></path>
            <path d="M521.45,461.6 C521.22,462 520.99,462.39 520.74,462.78 C520.49,463.17 520.25,463.56 519.99,463.93 C519.73,464.3 519.46,464.68 519.18,465.05 L518.68,465.69 C518.63,465.76 518.57,465.82 518.51,465.89 L518.17,466.31 L517.96,466.55 L517.64,466.91 C517.57,467 517.49,467.08 517.41,467.17 L517.1,467.51 C517.071596,467.531765 517.047801,467.558958 517.03,467.59 L516.85,467.76 L516.53,468.09 L516.28,468.34 L515.96,468.65 L515.69,468.9 L515.36,469.2 L515.08,469.45 L514.94,469.58 L514.75,469.74 L514.58,469.88 L514.46,469.98 L514.11,470.26 L513.83,470.49 L513.46,470.77 L513.17,470.99 L512.78,471.27 L512.5,471.47 L512.09,471.75 C512.00946,471.797538 511.93258,471.85102 511.86,471.91 L511.34,472.24 L511.16,472.35 L510.45,472.78 L510.22,472.9 C510.07,472.99 509.92,473.08 509.76,473.16 L509.71,473.16 L509.42,473.31 L508.97,473.55 L508.9,473.55 L508.53,473.73 L508.26,473.86 L507.73,474.1 L507.54,474.19 L506.8,474.5 L506.64,474.56 L506.1,474.77 L505.82,474.87 L505.34,475.05 L505.02,475.15 L504.56,475.3 L504.23,475.41 L503.78,475.54 L503.66,475.54 L503.44,475.6 L503.16,475.68 L502.98,475.68 L502.62,475.77 L502.16,475.88 L501.8,475.97 L501.34,476.06 L500.97,476.14 L500.5,476.23 L500.12,476.29 L499.99,476.29 L499.64,476.29 L499.27,476.34 L498.76,476.41 L498.41,476.46 L497.83,476.46 C497.733396,476.464921 497.636604,476.464921 497.54,476.46 L496.65,476.53 C493.950908,476.703336 491.24091,476.575885 488.57,476.15 C485.83854,475.720443 483.158007,475.013453 480.57,474.04 C477.918942,473.045808 475.367629,471.803634 472.95,470.33 C470.468174,468.832438 468.12548,467.115578 465.95,465.2 C461.553859,461.414388 457.848776,456.893848 455,451.84 C453.597508,449.254232 452.432725,446.546446 451.52,443.75 C450.620616,440.964613 449.997612,438.097454 449.66,435.19 L449.57,434.27 C449.565069,434.193413 449.565069,434.116587 449.57,434.04 C449.57,433.76 449.52,433.47 449.5,433.19 L449.5,433.13 C449.5,432.83 449.5,432.53 449.45,432.23 C449.445015,432.156751 449.445015,432.083249 449.45,432.01 C449.45,431.74 449.45,431.48 449.45,431.22 C449.445147,431.190196 449.445147,431.159804 449.45,431.13 L449.45,429.73 C449.45,429.58 449.45,429.43 449.45,429.28 C449.454946,429.230122 449.454946,429.179878 449.45,429.13 C449.45,428.85 449.45,428.56 449.45,428.28 C449.445266,428.213417 449.445266,428.146583 449.45,428.08 C449.45,427.84 449.45,427.61 449.5,427.37 C449.494519,427.333538 449.494519,427.296462 449.5,427.26 L449.5,427.21 C449.5,426.93 449.55,426.66 449.58,426.39 C449.57457,426.326783 449.57457,426.263217 449.58,426.2 C449.58,425.97 449.63,425.75 449.66,425.52 C449.66,425.46 449.66,425.4 449.66,425.34 C449.66,425.1 449.73,424.86 449.76,424.63 C449.76,424.63 449.76,424.57 449.76,424.55 C449.755175,424.493436 449.755175,424.436564 449.76,424.38 L449.88,423.72 C449.875183,423.680145 449.875183,423.639855 449.88,423.6 L449.88,423.53 L450.03,422.77 L450.03,422.63 C450.08,422.41 450.12,422.2 450.17,421.99 L450.22,421.79 L450.4,421.06 L450.4,420.94 C450.45,420.73 450.51,420.52 450.57,420.31 L450.57,420.2 L450.57,420.1 C450.574298,420.060115 450.574298,420.019885 450.57,419.98 L450.63,419.77 C450.651115,419.71816 450.667841,419.664639 450.68,419.61 L450.68,419.53 C450.68,419.42 450.75,419.31 450.79,419.2 C450.83,419.09 450.79,419.08 450.84,419.03 L450.84,418.97 C450.84,418.85 450.91,418.74 450.95,418.62 L451.01,418.45 L451.16,418.06 L451.16,417.93 C451.16,417.82 451.25,417.72 451.29,417.61 L451.36,417.43 L451.49,417.12 C451.49,417.05 451.55,416.99 451.57,416.93 L451.69,416.64 L451.78,416.44 L452,415.96 L451.08,415.9 L450.82,416.44 L450.76,416.59 L450.58,416.99 L450.49,417.19 C450.437336,417.304177 450.390607,417.421 450.35,417.54 C450.312425,417.618166 450.279044,417.69828 450.25,417.78 C450.25,417.88 450.16,417.99 450.12,418.1 L450.06,418.26 L449.91,418.67 C449.878886,418.745047 449.852174,418.821844 449.83,418.9 L449.69,419.26 C449.669352,419.345141 449.642616,419.428689 449.61,419.51 L449.49,419.87 C449.458812,419.951818 449.432105,420.035275 449.41,420.12 C449.41,420.24 449.33,420.35 449.3,420.47 L449.3,420.58 L449.3,420.69 C449.23,420.92 449.17,421.14 449.11,421.37 C449.104365,421.40645 449.104365,421.44355 449.11,421.48 C449.04,421.74 448.97,422 448.91,422.26 C448.91,422.32 448.91,422.39 448.86,422.45 C448.81,422.68 448.75,422.9 448.7,423.13 L448.7,423.27 C448.64,423.54 448.59,423.8 448.54,424.07 C448.534312,424.133206 448.534312,424.196794 448.54,424.26 L448.42,424.95 L448.42,425.11 C448.37,425.39 448.33,425.66 448.29,425.93 C448.29,426 448.29,426.06 448.29,426.12 L448.2,426.82 C448.2,426.88 448.2,426.94 448.2,427.01 L448.11,427.85 C448.11,427.9 448.11,427.96 448.11,428.02 C448.11,428.26 448.11,428.5 448.11,428.74 C448.11,428.81 448.11,428.88 448.11,428.95 C448.11,429.23 448.11,429.52 448.11,429.81 L448.11,429.96 C448.11,430.21 448.11,430.46 448.11,430.71 L448.11,430.93 C448.11,431.22 448.11,431.52 448.11,431.81 L448.11,431.93 C448.11,432.19 448.11,432.46 448.11,432.73 C448.11,432.8 448.11,432.88 448.11,432.96 C448.11,433.26 448.11,433.56 448.11,433.86 L448.11,433.93 L448.17,434.78 L448.17,435.02 C448.17,435.326667 448.2,435.636667 448.26,435.95 C448.596961,438.89115 449.223329,441.791871 450.13,444.61 C451.044108,447.439499 452.219159,450.177937 453.64,452.79 C455.058275,455.405702 456.708214,457.888976 458.57,460.21 C460.416675,462.529368 462.464635,464.681065 464.69,466.64 C466.883135,468.570581 469.242276,470.303964 471.74,471.82 C474.181733,473.306245 476.760166,474.555278 479.44,475.55 C482.050668,476.532268 484.754634,477.245954 487.51,477.68 C490.214858,478.102833 492.958014,478.226912 495.69,478.05 L496.59,477.98 L496.87,477.98 L497.47,477.92 L497.81,477.92 L498.34,477.85 L498.71,477.8 L499.21,477.72 L499.58,477.65 L500.06,477.56 L500.43,477.49 L500.9,477.38 L501.27,477.3 L501.73,477.19 L502.09,477.09 L502.55,476.97 L502.9,476.87 L503.35,476.73 L503.7,476.63 L504.15,476.48 L504.48,476.36 L504.96,476.19 L505.25,476.09 L505.83,475.86 L506,475.79 L506.74,475.47 L506.94,475.38 L507.47,475.14 L507.75,475 L508.12,474.82 L508.18,474.82 L508.66,474.57 L508.94,474.43 L509.51,474.11 L509.68,474.01 L510.41,473.58 C510.449551,473.547625 510.493276,473.520718 510.54,473.5 L511.12,473.13 L511.37,472.96 L511.81,472.66 L512.08,472.46 L512.49,472.17 L512.77,471.96 L513.15,471.67 L513.43,471.44 L513.79,471.15 L514.07,470.91 L514.42,470.61 L514.69,470.37 L515.03,470.06 L515.3,469.81 L515.63,469.49 L515.88,469.24 L516.21,468.9 L516.45,468.65 C516.56,468.53 516.67,468.42 516.77,468.3 L517.01,468.05 L517.33,467.68 L517.54,467.43 L517.88,467.02 L518.06,466.8 L518.56,466.16 C518.7,465.97 518.84,465.79 518.97,465.6 L519.09,465.44 L519.37,465.03 C519.42898,464.95742 519.482462,464.88054 519.53,464.8 L519.76,464.46 C519.82,464.37 519.87,464.28 519.93,464.2 C519.99,464.12 520.07,463.98 520.13,463.87 C520.189133,463.787039 520.242588,463.700174 520.29,463.61 L520.5,463.28 L520.64,463.02 L520.85,462.68 C520.85,462.59 520.94,462.51 520.99,462.42 L521.18,462.07 C521.23,461.97 521.28,461.87 521.34,461.77 L521.52,461.43 L521.57,461.33 L521.57,461.28 L521.66,461.11 L521.91,460.61 C521.89,460.79 521.67,461.2 521.45,461.6 Z" id="Shape" fill="#56CFD1" fill-rule="nonzero"></path>
            <path d="M880.69,286.46 C860.69,294.82 847.43,300.01 828.08,309.79 C833.81,282.16 840.55,248.88 846.28,221.25 C866.1,210.86 880.67,205.25 900.64,195.14 C893.41,225.65 887.92,256 880.69,286.46 Z" id="Shape" fill="#7C7291" fill-rule="nonzero"></path>
            <path d="M885.9,289.07 C865.9,297.43 851.34,305.07 832,314.85 C837.73,287.22 844.47,253.94 850.2,226.31 C870.02,215.93 885.88,207.84 905.85,197.74 C898.62,228.25 893.13,258.56 885.9,289.07 Z" id="Shape" fill="#CFCFDB" fill-rule="nonzero"></path>
            <path d="M1299.2,532.16 L1298.55,530.43 L1298.55,530.33 C1298.00279,529.054527 1296.54743,528.437103 1295.25,528.93 L1294.25,529.3 C1293.73934,529.492106 1293.16325,529.357948 1292.79,528.96 L1287.27,523.12 L1280.44,525.72 L1278.44,526.48 L1283.12,538.82 C1283.14243,538.879762 1283.18774,538.928128 1283.24592,538.9544 C1283.30409,538.980673 1283.37034,538.982688 1283.43,538.96 L1284.28,538.64 C1284.39644,538.58993 1284.45981,538.463194 1284.43,538.34 L1282.43,532.01 L1286.14,537.18 C1286.26612,537.345919 1286.44093,537.468287 1286.64,537.53 C1286.74277,537.545192 1286.84723,537.545192 1286.95,537.53 C1287.05293,537.529486 1287.15479,537.509113 1287.25,537.47 L1291.76,535.76 L1293.97,534.92 L1298.79,533.09 C1299.1479,532.933974 1299.32623,532.529463 1299.2,532.16 Z" id="Shape" fill="#2D2D2D" fill-rule="nonzero"></path>
            <path d="M1282.87,524.78 L1287.08,529.05 C1287.9195,529.908822 1289.19028,530.184223 1290.31,529.75 L1291,529.49 C1291.29331,529.365597 1291.50979,529.108874 1291.58287,528.798766 C1291.65596,528.488658 1291.57689,528.162286 1291.37,527.92 L1286.96,523.23 L1282.87,524.78 Z" id="Shape" fill="#F4A891" fill-rule="nonzero"></path>
            <path d="M1204.09,335.75 C1207.52,332.53 1212.03,327.16 1212.46,319.87 C1212.89,312.58 1215.96,272 1206.16,253.33 C1197.01,238.09 1167.25,235.88 1158.8,241.33 C1146.35,260.44 1122.35,313.02 1121.24,349.08 C1122.53,353.79 1133.98,370.42 1142.7,372.69 C1158.8,376.87 1204.09,335.77 1204.09,335.77" id="Shape" fill="#2B1B40" fill-rule="nonzero"></path>
            <polygon id="Shape" fill="#FF81A8" fill-rule="nonzero" points="1165.68 305.79 1200.94 310.42 1216.29 342.25 1182.67 346.82 1167.25 340.29"></polygon>
            <polygon id="Shape" fill="#F4A891" fill-rule="nonzero" points="1167.25 280.84 1173.6 302.12 1149.69 317.85 1204.18 321.28 1200.94 310.42 1190.33 305.79 1184.06 279.79"></polygon>
            <path d="M1166.81,308.61 C1178.35,310.93 1185.27,307.19 1189.53,302.46 L1186.9,291.58 L1168.82,286.12 L1173.6,302.12 L1164.6,308.03 C1165.32639,308.26057 1166.064,308.454152 1166.81,308.61 Z" id="Shape" fill="#D17B6D" fill-rule="nonzero"></path>
            <path d="M1167,431.69 C1175.57,438.92 1232.16,434.69 1256,435.1 C1261.94,435.2 1260.61,435.16 1264.19,439.9 C1275.51,454.9 1272.75,498.33 1278.11,527.56 C1281.48583,526.139228 1284.94567,524.92695 1288.47,523.93 C1283.53,505.2 1303.6,427.18 1278.92,410.14 C1254.24,393.1 1167,431.69 1167,431.69 Z" id="Shape" fill="#161616" fill-rule="nonzero"></path>
            <path d="M1168,318.89 L1200.31,317.32 L1213.15,332.8 L1224.43,406.88 L1212.6,428.88 C1212.6,428.88 1177.67,427.13 1177.12,425.83 C1176.57,424.53 1168.04,403.17 1168.04,403.17 L1168,318.89 Z" id="Shape" fill="#FFFFFF" fill-rule="nonzero"></path>
            <path d="M1183.33,355.9 C1185.46313,355.466586 1187.68123,355.875089 1189.52,357.04 C1192.62,359.04 1197.16,359.17 1199.43,356.71 C1201.7,354.25 1205.2,352.3 1208.3,352.63 C1211.4,352.96 1210.77,378.12 1210.77,378.12 L1217.58,403.29 C1217.58,403.29 1212.22,410.97 1211.39,411.29 C1210.56,411.61 1177.56,414.07 1177.56,414.07 L1174.05,364.29 L1183.33,355.9 Z" id="Shape" fill="#D1D1D1" fill-rule="nonzero"></path>
            <path d="M1151.19,405.31 C1150.19,415.74 1148.36,467.65 1216.7,443.16 C1269.95,421.57 1273.84,418.16 1282.93,423.52 C1293.93,436.71 1300.12,500.85 1303.32,508.39 C1305.82278,508.016112 1308.36722,508.016112 1310.87,508.39 C1309.3,498.25 1317.48,423.81 1288.35,400.14 C1284.49682,397.008333 1279.54201,395.565886 1274.61,396.14 C1256.37,398.26 1220.51,404.08 1220.51,404.08 C1204.91,403.57 1151.19,405.31 1151.19,405.31 Z" id="Shape" fill="#292929" fill-rule="nonzero"></path>
            <path d="M1321.38,509.85 L1320.58,508.54 L1320.58,508.46 C1319.9422,507.496654 1318.65709,507.209601 1317.67,507.81 L1316.93,508.26 C1316.55047,508.508798 1316.05953,508.508798 1315.68,508.26 L1310.28,504.32 L1303.56,508.4 L1309.26,517.79 C1309.32311,517.8804 1309.44539,517.906602 1309.54,517.85 L1310.18,517.46 C1310.27625,517.407206 1310.31195,517.286704 1310.26,517.19 L1307.66,512.32 L1311.49,515.98 C1311.75,516.259453 1312.17548,516.306256 1312.49,516.09 L1317.59,512.99 L1321.26,510.76 C1321.40109,510.65851 1321.49398,510.503245 1321.5167,510.330939 C1321.53942,510.158633 1321.48995,509.984594 1321.38,509.85 Z" id="Shape" fill="#2D2D2D" fill-rule="nonzero"></path>
            <path d="M1306.9,506.29 L1310.99,509.14 C1311.80796,509.711943 1312.8864,509.747238 1313.74,509.23 L1314.26,508.91 C1314.49333,508.772714 1314.64141,508.526732 1314.65352,508.256277 C1314.66563,507.985822 1314.54013,507.727591 1314.32,507.57 L1310,504.4 L1306.9,506.29 Z" id="Shape" fill="#F4A891" fill-rule="nonzero"></path>
            <path d="M1172.26,303 L1143.91,317.86 C1143.91,317.86 1157.12,366.15 1158.06,371.74 C1159,377.33 1144.48,412.93 1144.48,412.93 L1187.27,417.05 L1181.75,368.71 L1184.98,350.08 L1172.26,303 Z" id="Shape" fill="url(#linearGradient-32)" fill-rule="nonzero"></path>
            <path d="M1192.19,306.35 L1195.82,314.44 L1208.3,352.63 C1208.3,352.63 1206.41,365.63 1206.57,366.47 C1206.73,367.31 1215.57,412.86 1215.57,412.86 L1231.47,407.86 C1231.47,407.86 1223.84,362.63 1223.04,360.64 C1222.24,358.65 1224.51,349.22 1224.51,349.22 L1213.71,318.64 L1192.19,306.35 Z" id="Shape" fill="url(#linearGradient-33)" fill-rule="nonzero"></path>
            <path d="M1299.06,400.39 L1299.06,395.68 L1293.37,395.45 L1246.63,367.8 C1245.80811,367.320672 1244.79189,367.320672 1243.97,367.8 L1184.45,402.25 L1178.38,402.25 L1178.38,407.31 C1178.38,408.230623 1178.86685,409.082607 1179.66,409.55 L1229.89,439.55 C1230.70336,440.034327 1231.71664,440.034327 1232.53,439.55 L1297.75,402.55 C1298.54095,402.100701 1299.03822,401.269396 1299.06,400.36 L1299.06,400.39 Z" id="Shape" fill="#C4D0D8" fill-rule="nonzero"></path>
            <path d="M1229.89,433.77 L1179.66,403.77 C1178.86247,403.301148 1178.37272,402.445138 1178.37272,401.52 C1178.37272,400.594862 1178.86247,399.738852 1179.66,399.27 L1244,362 C1244.82189,361.520672 1245.83811,361.520672 1246.66,362 L1297.81,392.26 C1298.61192,392.730307 1299.10456,393.590345 1299.10456,394.52 C1299.10456,395.449655 1298.61192,396.309693 1297.81,396.78 L1232.59,433.78 C1231.75744,434.276371 1230.71886,434.272524 1229.89,433.77 Z" id="Shape" fill="#FFF9FF" fill-rule="nonzero"></path>
            <path d="M1236.62,425.8 L1205.62,407.3 C1205.13123,407.007426 1204.83205,406.479643 1204.83205,405.91 C1204.83205,405.340357 1205.13123,404.812574 1205.62,404.52 L1245.3,381.52 C1245.8057,381.22071 1246.4343,381.22071 1246.94,381.52 L1278.5,400.19 C1278.99353,400.48139 1279.29636,401.011867 1279.29636,401.585 C1279.29636,402.158133 1278.99353,402.68861 1278.5,402.98 L1238.26,425.79 C1237.75612,426.09238 1237.12753,426.096213 1236.62,425.8 Z" id="Shape" fill="#C4D0D8" fill-rule="nonzero"></path>
            <path d="M1216.89,320.9 L1213.77,318.9 L1224.46,349.19 C1224.46,349.19 1222.19,358.61 1222.99,360.61 C1223.31,361.4 1222.82,363.16 1224.39,372.09 C1250.62,393.5 1286.47,396.77 1293.39,394.4 C1221.73,373.54 1226.78,341.94 1216.89,320.9 Z" id="Shape" fill="#293C51" fill-rule="nonzero"></path>
            <path d="M1298.59,338.59 L1295.59,336.53 C1295.31753,336.217551 1294.97481,335.974219 1294.59,335.82 L1294.33,335.65 L1294.25,335.72 C1293.60443,335.561074 1292.92228,335.661601 1292.35,336 L1227.92,372.67 C1227.10906,373.138199 1226.60964,374.003602 1226.61,374.94 L1226.61,433.82 C1226.60025,434.894584 1227.2576,435.862678 1228.26,436.25 L1229.96,437.25 L1230.14,436.32 C1230.28049,436.261474 1230.4174,436.194691 1230.55,436.12 L1294.97,398.92 C1295.77551,398.452558 1296.27092,397.591316 1296.27,396.66 L1296.27,338.66 L1298.59,338.59 Z" id="Shape" fill="#C4D0D8" fill-rule="nonzero"></path>
            <path d="M1229.4,435.65 L1229.4,376.76 C1229.40169,375.824153 1229.90056,374.959702 1230.71,374.49 L1295.14,337.82 C1295.95016,337.356994 1296.94544,337.359829 1297.75295,337.827443 C1298.56046,338.295058 1299.05832,339.156869 1299.06,340.09 L1299.06,398.45 C1299.06095,399.378725 1298.57016,400.238548 1297.77,400.71 L1233.34,437.91 C1232.53015,438.382346 1231.52963,438.385962 1230.71639,437.919482 C1229.90315,437.453002 1229.40114,436.587533 1229.4,435.65 Z" id="Shape" fill="#DFE6EA" fill-rule="nonzero"></path>
            <path d="M1277.09,385.64 C1276.49081,386.37225 1275.64413,386.859625 1274.71,387.01 C1272.29,387.35 1269.99,385.21 1269.56,382.22 C1269.43838,381.385718 1269.48599,380.535487 1269.7,379.72 C1269.42225,379.720066 1269.14487,379.740118 1268.87,379.78 C1264.74,380.37 1261.98,385 1262.71,390.12 C1263.44,395.24 1267.39,398.91 1271.53,398.32 C1275.67,397.73 1278.42,393.09 1277.69,387.97 C1277.5718,387.174534 1277.37071,386.393617 1277.09,385.64 Z" id="Shape" fill="#FFF9FF" fill-rule="nonzero"></path>
            <path d="M1203.66,262.56 C1204.3,271.56 1204.33,287.4 1203.82,289.74 C1202.32,296.61 1188.4,302.1 1188.4,302.1 C1184.1,302.52 1166.67,296.44 1164.52,288.1 C1162.81,281.44 1158.09,264.86 1164.2,251.58 C1167.84,243.64 1199.58,231.04 1203.66,262.58" id="Shape" fill="#F4A891" fill-rule="nonzero"></path>
            <path d="M1160.47,285.3 C1161.87,287.04 1164.04,287.63 1165.31,286.61 C1166.58,285.59 1166.48,283.35 1165.08,281.61 C1163.68,279.87 1161.51,279.28 1160.24,280.3 C1158.97,281.32 1159.07,283.57 1160.47,285.3" id="Shape" fill="#F4A891" fill-rule="nonzero"></path>
            <path d="M1195.84,249.68 C1195.84,249.68 1176.84,252.68 1166.53,263.35 C1163.95,267.93 1167.4,287.65 1167.1,288.06 C1166.8,288.47 1163.45,280.44 1162.53,279.89 C1161.61,279.34 1156.23,272.61 1155.65,267.59 C1155.07,262.57 1166.07,240.44 1174.08,239.3 C1182.09,238.16 1207.67,243.89 1206.08,267.5 C1203.43,261.12 1200.97,252.55 1195.82,249.68" id="Shape" fill="#2B1B40" fill-rule="nonzero"></path>
            <path d="M785,226.82 L773.93,209.18 L767.07,209.18 C770.21,201.62 783.27,202.09 792.07,209.6 C800.87,217.11 796.4,233.5 785.07,226.82" id="Shape" fill="#F4A891" fill-rule="nonzero"></path>
            <path d="M644.25,569.44 C646.37,581 647.97,592.63 649.94,604.12 C650.840997,609.81856 652.093385,615.455976 653.69,621 C654.45027,623.631182 655.549488,626.152323 656.96,628.5 C657.61393,629.555114 658.426838,630.502945 659.37,631.31 C659.837442,631.704304 660.351236,632.040118 660.9,632.31 L661.72,632.77 C662.01,632.92 662.35,633.04 662.65,633.18 C665.255095,634.283519 667.92704,635.22204 670.65,635.99 C673.41,636.82 676.21,637.56 679.02,638.27 C684.64,639.73 690.35,640.9 696.02,642.06 C707.46,644.32 707.11,647.06 695.45,645.42 C689.61,644.65 683.81,643.55 678.03,642.3 C675.14,641.66 672.27,640.93 669.4,640.13 C666.477371,639.31903 663.611195,638.316871 660.82,637.13 C660.46,636.97 660.11,636.83 659.75,636.64 L658.65,636.04 C657.896972,635.633292 657.189614,635.147193 656.54,634.59 C655.256547,633.492064 654.153152,632.199708 653.27,630.76 C651.684925,628.060735 650.477033,625.157083 649.68,622.13 C648.189808,616.364231 647.136818,610.494233 646.53,604.57 C645.23,592.89 644.57,581.19 644.25,569.44 Z" id="Shape" fill="#24374C" fill-rule="nonzero"></path>
            <path d="M644.25,569.44 C648.34,609.09 650.44,628.38 659.18,633.85 C666.4,638.66 687,644.08 715.18,644.85 C729.18,645.23 733.18,642.24 730.89,639.49 C721.89,639.68 719.82,634.2 719.82,634.2 C692.69,628.2 673.11,628.5 668.42,610.81 C666.12,594.81 664.82,570.81 664.82,570.81 C663.41,567 651.87,560.46 644.25,569.44 Z" id="Shape" fill="#F4A891" fill-rule="nonzero"></path>
            <path d="M700.13,630.29 C683.41,627.06 671.84,623.83 668.38,610.78 C666.08,594.78 664.78,570.78 664.78,570.78 C663.41,566.96 651.87,560.47 644.25,569.45 C648.34,609.1 650.44,628.39 659.18,633.86 C664.89,637.67 679.01,641.86 698.6,643.8 L700.13,630.29 Z" id="Shape" fill="url(#radialGradient-34)" fill-rule="nonzero"></path>
            <path d="M1140,320.61 C1142.13,332.16 1143.73,343.79 1145.69,355.29 C1146.60113,360.983337 1147.85339,366.616813 1149.44,372.16 C1150.20604,374.787566 1151.3085,377.305092 1152.72,379.65 C1153.37653,380.706155 1154.18905,381.656913 1155.13,382.47 C1155.59385,382.864264 1156.10433,383.200108 1156.65,383.47 L1157.48,383.93 C1157.77,384.08 1158.1,384.2 1158.41,384.34 C1161.0151,385.443519 1163.68704,386.38204 1166.41,387.15 C1169.17,387.98 1171.97,388.72 1174.78,389.43 C1180.4,390.89 1186.11,392.06 1191.78,393.22 C1203.22,395.47 1202.87,398.22 1191.21,396.58 C1185.36,395.81 1179.57,394.7 1173.79,393.46 C1170.9,392.82 1168.03,392.09 1165.16,391.29 C1162.23879,390.474517 1159.3729,389.472459 1156.58,388.29 C1156.22,388.12 1155.87,387.99 1155.5,387.8 L1154.41,387.19 C1153.65364,386.792725 1152.94563,386.309532 1152.3,385.75 C1151.01384,384.65093 1149.91013,383.35483 1149.03,381.91 C1147.44098,379.216252 1146.23283,376.315341 1145.44,373.29 C1143.94654,367.521086 1142.89021,361.647769 1142.28,355.72 C1141,344.06 1140.31,332.36 1140,320.61 Z" id="Shape" fill="#24374C" fill-rule="nonzero"></path>
            <path d="M1140,320.61 C1144.1,360.26 1146.2,379.55 1154.93,385.01 C1162.16,389.83 1182.75,395.24 1210.93,396.01 C1224.93,396.39 1228.98,393.4 1226.65,390.65 C1217.65,390.84 1215.58,385.35 1215.58,385.35 C1188.45,379.35 1168.87,379.66 1164.18,361.97 C1161.88,345.92 1160.57,321.97 1160.57,321.97 C1159.15,318.12 1147.61,311.63 1140,320.61 Z" id="Shape" fill="#F4A891" fill-rule="nonzero"></path>
            <path d="M1203.59,382.92 C1182.73,378.97 1168.09,376.92 1164.12,361.92 C1161.82,345.87 1160.51,321.92 1160.51,321.92 C1159.15,318.11 1147.61,311.62 1139.98,320.6 C1144.08,360.25 1146.18,379.54 1154.91,385 C1160.05,388.43 1179.51,396 1201.02,396.36 L1203.59,382.92 Z" id="Shape" fill="url(#radialGradient-35)" fill-rule="nonzero"></path>
            <polygon id="Shape" fill="#FFFFFF" fill-rule="nonzero" points="1204.83 383.36 1202.64 396.32 1194.76 396.22 1197.94 381.77"></polygon>
            <path d="M755.39,236 L744.31,218.36 L737.45,218.36 C740.6,210.8 753.66,211.27 762.45,218.78 C771.24,226.29 766.79,242.68 755.45,236" id="Shape" fill="#F4A891" fill-rule="nonzero"></path>
            <path d="M816.34,185.86 C815.19,184.09 811.76,180.31 808.64,179.79 C808.47,179.91 808.29,180.03 808.13,180.16 C806.52895,181.464403 805.061717,182.924937 803.75,184.52 C798.81,190.12 794.14,196.17 789.2,201.76 C781.07,215.42 783.7,207.7 771.1,217.4 C768.52,219.4 764.53,221.26 762.43,218.78 C759.450729,224.23575 757.102273,230.01295 755.43,236 C762.34,241.48 763.76,249.26 772.43,247.53 L783.9,245.25 C787.85,244.46 792.78,242.41 795.34,239.25 C795.34,239.5 795.34,239.75 795.34,240 C816.63,221.8 817.81,188.13 816.34,185.86 Z" id="Shape" fill="url(#linearGradient-36)" fill-rule="nonzero"></path>
        </g>
    </g>
</svg>